<svg xmlns="http://www.w3.org/2000/svg" xmlns:v="https://svgstorm.com"
viewBox = "0 0 512 512"
width="512"
height="512">
<g fill="None" fill-opacity="0.0" stroke="#000000" stroke-opacity="0.00" stroke-width="0.3"><path d="
M 0.00 512.00 
L 512.00 512.00
L 512.00 0.00
L 0.00 0.00
L 0.00 512.00
M 484.00 160.00 
C 484.73 167.79 485.84 176.04 486.00 184.00
C 486.49 208.37 486.46 232.59 486.00 257.00 C 485.54 281.41 487.66 306.62 486.00 331.00
C 485.72 335.07 485.00 338.72 485.00 343.00
C 485.00 362.86 480.26 382.70 474.00 401.00
C 463.99 430.26 447.99 451.93 418.77 466.77 C 389.55 481.61 352.31 486.13 317.00 486.00 C 281.69 485.87 231.36 485.84 196.00 486.00 C 160.64 486.16 123.36 481.76 93.92 467.08 C 64.49 452.39 48.07 430.45 38.00 401.00
C 31.73 382.68 27.00 362.92 27.00 343.00
C 27.00 338.70 26.28 335.13 26.00 331.00
C 24.31 306.17 25.87 280.94 26.00 256.00 C 26.13 231.06 24.02 204.89 26.00 180.00
C 26.48 174.00 27.46 166.56 28.00 161.00
C 32.56 113.90 46.89 68.34 93.23 45.23 C 139.57 22.12 201.59 26.10 255.00 26.00 C 308.41 25.90 370.64 22.17 417.23 44.77 C 463.82 67.38 479.53 112.39 484.00 160.00 Z"/>
</g>
<g fill="None" fill-opacity="0.0" stroke="#64B078" stroke-opacity="0.96" stroke-width="0.3"><path d="
M 28.00 161.00 
C 30.61 159.18 40.75 161.22 44.00 161.00 C 47.25 160.78 58.26 159.52 60.00 162.00
C 63.62 124.61 77.46 84.96 117.23 70.23 C 157.00 55.49 211.65 59.00 256.00 59.00 C 300.35 59.00 354.05 55.52 394.02 69.98 C 434.00 84.43 448.36 124.42 452.00 162.00
C 454.51 158.41 464.32 162.66 468.00 161.00 C 471.68 159.34 481.37 163.71 484.00 160.00
C 479.53 112.39 463.82 67.38 417.23 44.77 C 370.64 22.17 308.41 25.90 255.00 26.00 C 201.59 26.10 139.57 22.12 93.23 45.23 C 46.89 68.34 32.56 113.90 28.00 161.00 Z"/>
</g>
<g fill="None" fill-opacity="0.0" stroke="#000000" stroke-opacity="0.00" stroke-width="0.3"><path d="
M 60.00 162.00 
C 59.32 168.99 59.26 176.15 59.00 183.00
C 58.07 207.35 58.83 231.59 59.00 256.00 C 59.17 280.41 57.68 305.59 59.00 330.00
C 59.21 333.84 59.85 337.09 60.00 341.00
C 60.77 361.09 63.92 382.23 73.00 400.00
C 105.76 464.10 192.47 453.78 255.00 453.00 C 317.53 452.22 406.77 466.17 439.00 401.00
C 448.16 382.48 450.87 360.84 452.00 340.00
C 452.18 336.77 452.78 334.20 453.00 331.00
C 454.67 306.43 452.90 281.68 453.00 257.00 C 453.10 232.32 454.34 206.68 453.00 182.00
C 452.65 175.54 452.64 168.64 452.00 162.00
C 448.36 124.42 434.00 84.43 394.02 69.98 C 354.05 55.52 300.35 59.00 256.00 59.00 C 211.65 59.00 157.00 55.49 117.23 70.23 C 77.46 84.96 63.62 124.61 60.00 162.00
M 141.00 218.00 
C 134.81 213.40 127.36 206.29 123.00 200.00
C 117.64 192.26 118.14 181.36 126.70 175.70 C 135.25 170.04 145.96 175.12 153.00 181.00
C 160.77 171.12 170.60 164.50 178.75 154.75 C 186.91 145.00 201.34 134.00 212.25 146.75 C 223.16 159.51 209.87 170.99 200.75 179.75 C 191.63 188.51 183.04 197.19 174.25 206.25 C 165.46 215.31 153.81 229.29 141.00 218.00
M 381.00 173.00 
C 392.91 175.77 397.86 198.87 383.77 203.77 C 369.68 208.67 350.30 205.22 335.00 206.00 C 319.70 206.78 298.72 205.59 284.00 206.00 C 269.28 206.41 250.25 209.00 247.67 191.33 C 245.09 173.66 264.07 171.14 279.00 173.00 C 293.93 174.86 314.33 170.95 330.00 173.00 C 345.67 175.05 365.48 169.39 381.00 173.00
M 151.00 331.00 
C 160.80 323.78 169.39 314.30 178.25 305.25 C 187.10 296.19 198.56 282.76 211.25 294.75 C 223.93 306.75 210.30 320.41 201.25 329.25 C 192.20 338.09 182.74 346.16 174.75 355.75 C 166.77 365.34 150.80 377.92 140.25 366.75 C 129.70 355.58 119.02 351.05 119.98 335.98 C 120.93 320.90 144.24 317.36 151.00 331.00
M 380.00 322.00 
C 396.04 325.32 396.40 354.52 377.98 354.98 C 359.55 355.43 337.45 355.19 319.00 355.00 C 300.55 354.81 276.81 356.05 259.33 354.67 C 241.85 353.29 243.58 321.90 261.07 322.07 C 278.56 322.25 301.64 320.45 320.00 322.00 C 338.36 323.55 361.77 318.22 380.00 322.00 Z"/>
</g>
<g fill="None" fill-opacity="0.0" stroke="#5DAC8F" stroke-opacity="0.96" stroke-width="0.3"><path d="
M 123.00 200.00 
C 127.82 205.93 135.27 213.01 141.00 218.00
C 153.81 229.29 165.46 215.31 174.25 206.25 C 183.04 197.19 191.63 188.51 200.75 179.75 C 209.87 170.99 223.16 159.51 212.25 146.75 C 201.34 134.00 186.91 145.00 178.75 154.75 C 170.60 164.50 160.77 171.12 153.00 181.00
C 145.96 175.12 135.25 170.04 126.70 175.70 C 118.14 181.36 117.64 192.26 123.00 200.00 Z"/>
</g>
<g fill="None" fill-opacity="0.0" stroke="#5DAC90" stroke-opacity="0.99" stroke-width="0.3"><path d="
M 452.00 162.00 
C 452.64 168.64 452.65 175.54 453.00 182.00
C 455.11 194.99 454.00 210.23 454.00 224.00
C 464.33 224.00 474.67 224.00 485.00 224.00
C 485.00 210.72 485.04 196.50 486.00 184.00
C 485.84 176.04 484.73 167.79 484.00 160.00
C 481.37 163.71 471.68 159.34 468.00 161.00 C 464.32 162.66 454.51 158.41 452.00 162.00 Z"/>
</g>
<g fill="None" fill-opacity="0.0" stroke="#5DAC90" stroke-opacity="0.99" stroke-width="0.3"><path d="
M 26.00 180.00 
C 26.24 193.82 27.00 209.44 27.00 224.00
C 37.33 224.00 47.67 224.00 58.00 224.00
C 58.00 210.49 57.19 195.68 59.00 183.00
C 59.26 176.15 59.32 168.99 60.00 162.00
C 58.26 159.52 47.25 160.78 44.00 161.00 C 40.75 161.22 30.61 159.18 28.00 161.00
C 27.46 166.56 26.48 174.00 26.00 180.00 Z"/>
</g>
<g fill="None" fill-opacity="0.0" stroke="#5DAC90" stroke-opacity="0.96" stroke-width="0.3"><path d="
M 381.00 173.00 
C 365.48 169.39 345.67 175.05 330.00 173.00 C 314.33 170.95 293.93 174.86 279.00 173.00 C 264.07 171.14 245.09 173.66 247.67 191.33 C 250.25 209.00 269.28 206.41 284.00 206.00 C 298.72 205.59 319.70 206.78 335.00 206.00 C 350.30 205.22 369.68 208.67 383.77 203.77 C 397.86 198.87 392.91 175.77 381.00 173.00 Z"/>
</g>
<g fill="None" fill-opacity="0.0" stroke="#59A99D" stroke-opacity="0.32" stroke-width="0.3"><path d="
M 26.00 331.00 
C 26.44 315.81 27.00 298.92 27.00 283.00
C 27.00 263.33 27.00 243.67 27.00 224.00
C 27.00 209.44 26.24 193.82 26.00 180.00
C 24.02 204.89 26.13 231.06 26.00 256.00 C 25.87 280.94 24.31 306.17 26.00 331.00 Z"/>
</g>
<g fill="None" fill-opacity="0.0" stroke="#59AA9E" stroke-opacity="0.67" stroke-width="0.3"><path d="
M 453.00 331.00 
C 455.65 316.24 454.00 298.60 454.00 283.00
C 454.00 263.33 454.00 243.67 454.00 224.00
C 454.00 210.23 455.11 194.99 453.00 182.00
C 454.34 206.68 453.10 232.32 453.00 257.00 C 452.90 281.68 454.67 306.43 453.00 331.00 Z"/>
</g>
<g fill="None" fill-opacity="0.0" stroke="#59AA9E" stroke-opacity="0.67" stroke-width="0.3"><path d="
M 58.00 224.00 
C 58.00 243.67 58.00 263.33 58.00 283.00
C 58.00 298.36 56.65 315.52 59.00 330.00
C 57.68 305.59 59.17 280.41 59.00 256.00 C 58.83 231.59 58.07 207.35 59.00 183.00
C 57.19 195.68 58.00 210.49 58.00 224.00 Z"/>
</g>
<g fill="None" fill-opacity="0.0" stroke="#59A99E" stroke-opacity="0.33" stroke-width="0.3"><path d="
M 485.00 224.00 
C 485.00 243.67 485.00 263.33 485.00 283.00
C 485.00 298.90 485.56 315.90 486.00 331.00
C 487.66 306.62 485.54 281.41 486.00 257.00 C 486.46 232.59 486.49 208.37 486.00 184.00
C 485.04 196.50 485.00 210.72 485.00 224.00 Z"/>
</g>
<g fill="None" fill-opacity="0.0" stroke="#58ACAC" stroke-opacity="0.01" stroke-width="0.3"><path d="
M 141.00 218.00 
C 135.27 213.01 127.82 205.93 123.00 200.00
C 127.36 206.29 134.81 213.40 141.00 218.00 Z"/>
</g>
<g fill="None" fill-opacity="0.0" stroke="#59AA9D" stroke-opacity="1.00" stroke-width="0.3"><path d="
M 27.00 283.00 
C 37.33 283.00 47.67 283.00 58.00 283.00
C 58.00 263.33 58.00 243.67 58.00 224.00
C 47.67 224.00 37.33 224.00 27.00 224.00
C 27.00 243.67 27.00 263.33 27.00 283.00 Z"/>
</g>
<g fill="None" fill-opacity="0.0" stroke="#59AA9D" stroke-opacity="1.00" stroke-width="0.3"><path d="
M 454.00 283.00 
C 464.33 283.00 474.67 283.00 485.00 283.00
C 485.00 263.33 485.00 243.67 485.00 224.00
C 474.67 224.00 464.33 224.00 454.00 224.00
C 454.00 243.67 454.00 263.33 454.00 283.00 Z"/>
</g>
<g fill="None" fill-opacity="0.0" stroke="#56A8A9" stroke-opacity="0.99" stroke-width="0.3"><path d="
M 26.00 331.00 
C 26.28 335.13 27.00 338.70 27.00 343.00
C 29.20 338.60 37.25 341.76 42.00 341.00 C 46.75 340.24 54.94 341.57 60.00 341.00
C 59.85 337.09 59.21 333.84 59.00 330.00
C 56.65 315.52 58.00 298.36 58.00 283.00
C 47.67 283.00 37.33 283.00 27.00 283.00
C 27.00 298.92 26.44 315.81 26.00 331.00 Z"/>
</g>
<g fill="None" fill-opacity="0.0" stroke="#56A8A9" stroke-opacity="1.00" stroke-width="0.3"><path d="
M 453.00 331.00 
C 452.78 334.20 452.18 336.77 452.00 340.00
C 454.65 343.90 465.00 339.36 469.00 341.00 C 473.00 342.64 482.62 338.24 485.00 343.00
C 485.00 338.72 485.72 335.07 486.00 331.00
C 485.56 315.90 485.00 298.90 485.00 283.00
C 474.67 283.00 464.33 283.00 454.00 283.00
C 454.00 298.60 455.65 316.24 453.00 331.00 Z"/>
</g>
<g fill="None" fill-opacity="0.0" stroke="#54A7AD" stroke-opacity="0.95" stroke-width="0.3"><path d="
M 151.00 331.00 
C 144.24 317.36 120.93 320.90 119.98 335.98 C 119.02 351.05 129.70 355.58 140.25 366.75 C 150.80 377.92 166.77 365.34 174.75 355.75 C 182.74 346.16 192.20 338.09 201.25 329.25 C 210.30 320.41 223.93 306.75 211.25 294.75 C 198.56 282.76 187.10 296.19 178.25 305.25 C 169.39 314.30 160.80 323.78 151.00 331.00 Z"/>
</g>
<g fill="None" fill-opacity="0.0" stroke="#54A7AE" stroke-opacity="0.96" stroke-width="0.3"><path d="
M 380.00 322.00 
C 361.77 318.22 338.36 323.55 320.00 322.00 C 301.64 320.45 278.56 322.25 261.07 322.07 C 243.58 321.90 241.85 353.29 259.33 354.67 C 276.81 356.05 300.55 354.81 319.00 355.00 C 337.45 355.19 359.55 355.43 377.98 354.98 C 396.40 354.52 396.04 325.32 380.00 322.00 Z"/>
</g>
<g fill="None" fill-opacity="0.0" stroke="#52A6B5" stroke-opacity="0.96" stroke-width="0.3"><path d="
M 439.00 401.00 
C 442.36 398.88 452.23 399.49 456.00 400.00 C 459.77 400.51 471.91 397.70 474.00 401.00
C 480.26 382.70 485.00 362.86 485.00 343.00
C 482.62 338.24 473.00 342.64 469.00 341.00 C 465.00 339.36 454.65 343.90 452.00 340.00
C 450.87 360.84 448.16 382.48 439.00 401.00 Z"/>
</g>
<g fill="None" fill-opacity="0.0" stroke="#52A6B5" stroke-opacity="0.96" stroke-width="0.3"><path d="
M 27.00 343.00 
C 27.00 362.92 31.73 382.68 38.00 401.00
C 39.81 398.14 51.44 399.88 55.00 400.00 C 58.56 400.12 69.61 398.33 73.00 400.00
C 63.92 382.23 60.77 361.09 60.00 341.00
C 54.94 341.57 46.75 340.24 42.00 341.00 C 37.25 341.76 29.20 338.60 27.00 343.00 Z"/>
</g>
<g fill="None" fill-opacity="0.0" stroke="#4DA3C6" stroke-opacity="0.96" stroke-width="0.3"><path d="
M 38.00 401.00 
C 48.07 430.45 64.49 452.39 93.92 467.08 C 123.36 481.76 160.64 486.16 196.00 486.00 C 231.36 485.84 281.69 485.87 317.00 486.00 C 352.31 486.13 389.55 481.61 418.77 466.77 C 447.99 451.93 463.99 430.26 474.00 401.00
C 471.91 397.70 459.77 400.51 456.00 400.00 C 452.23 399.49 442.36 398.88 439.00 401.00
C 406.77 466.17 317.53 452.22 255.00 453.00 C 192.47 453.78 105.76 464.10 73.00 400.00
C 69.61 398.33 58.56 400.12 55.00 400.00 C 51.44 399.88 39.81 398.14 38.00 401.00 Z"/>
</g>
<g fill="#000000" fill-opacity="0.00" stroke="None">
<path d="
M 0.00 512.00 
L 512.00 512.00
L 512.00 0.00
L 0.00 0.00
L 0.00 512.00
M 484.00 160.00 
C 484.73 167.79 485.84 176.04 486.00 184.00
C 486.49 208.37 486.46 232.59 486.00 257.00 C 485.54 281.41 487.66 306.62 486.00 331.00
C 485.72 335.07 485.00 338.72 485.00 343.00
C 485.00 362.86 480.26 382.70 474.00 401.00
C 463.99 430.26 447.99 451.93 418.77 466.77 C 389.55 481.61 352.31 486.13 317.00 486.00 C 281.69 485.87 231.36 485.84 196.00 486.00 C 160.64 486.16 123.36 481.76 93.92 467.08 C 64.49 452.39 48.07 430.45 38.00 401.00
C 31.73 382.68 27.00 362.92 27.00 343.00
C 27.00 338.70 26.28 335.13 26.00 331.00
C 24.31 306.17 25.87 280.94 26.00 256.00 C 26.13 231.06 24.02 204.89 26.00 180.00
C 26.48 174.00 27.46 166.56 28.00 161.00
C 32.56 113.90 46.89 68.34 93.23 45.23 C 139.57 22.12 201.59 26.10 255.00 26.00 C 308.41 25.90 370.64 22.17 417.23 44.77 C 463.82 67.38 479.53 112.39 484.00 160.00 Z"/>
</g>
<g fill="#64B078" fill-opacity="0.96" stroke="None">
<path d="
M 28.00 161.00 
C 30.61 159.18 40.75 161.22 44.00 161.00 C 47.25 160.78 58.26 159.52 60.00 162.00
C 63.62 124.61 77.46 84.96 117.23 70.23 C 157.00 55.49 211.65 59.00 256.00 59.00 C 300.35 59.00 354.05 55.52 394.02 69.98 C 434.00 84.43 448.36 124.42 452.00 162.00
C 454.51 158.41 464.32 162.66 468.00 161.00 C 471.68 159.34 481.37 163.71 484.00 160.00
C 479.53 112.39 463.82 67.38 417.23 44.77 C 370.64 22.17 308.41 25.90 255.00 26.00 C 201.59 26.10 139.57 22.12 93.23 45.23 C 46.89 68.34 32.56 113.90 28.00 161.00 Z"/>
</g>
<g fill="#000000" fill-opacity="0.00" stroke="None">
<path d="
M 60.00 162.00 
C 59.32 168.99 59.26 176.15 59.00 183.00
C 58.07 207.35 58.83 231.59 59.00 256.00 C 59.17 280.41 57.68 305.59 59.00 330.00
C 59.21 333.84 59.85 337.09 60.00 341.00
C 60.77 361.09 63.92 382.23 73.00 400.00
C 105.76 464.10 192.47 453.78 255.00 453.00 C 317.53 452.22 406.77 466.17 439.00 401.00
C 448.16 382.48 450.87 360.84 452.00 340.00
C 452.18 336.77 452.78 334.20 453.00 331.00
C 454.67 306.43 452.90 281.68 453.00 257.00 C 453.10 232.32 454.34 206.68 453.00 182.00
C 452.65 175.54 452.64 168.64 452.00 162.00
C 448.36 124.42 434.00 84.43 394.02 69.98 C 354.05 55.52 300.35 59.00 256.00 59.00 C 211.65 59.00 157.00 55.49 117.23 70.23 C 77.46 84.96 63.62 124.61 60.00 162.00
M 141.00 218.00 
C 134.81 213.40 127.36 206.29 123.00 200.00
C 117.64 192.26 118.14 181.36 126.70 175.70 C 135.25 170.04 145.96 175.12 153.00 181.00
C 160.77 171.12 170.60 164.50 178.75 154.75 C 186.91 145.00 201.34 134.00 212.25 146.75 C 223.16 159.51 209.87 170.99 200.75 179.75 C 191.63 188.51 183.04 197.19 174.25 206.25 C 165.46 215.31 153.81 229.29 141.00 218.00
M 381.00 173.00 
C 392.91 175.77 397.86 198.87 383.77 203.77 C 369.68 208.67 350.30 205.22 335.00 206.00 C 319.70 206.78 298.72 205.59 284.00 206.00 C 269.28 206.41 250.25 209.00 247.67 191.33 C 245.09 173.66 264.07 171.14 279.00 173.00 C 293.93 174.86 314.33 170.95 330.00 173.00 C 345.67 175.05 365.48 169.39 381.00 173.00
M 151.00 331.00 
C 160.80 323.78 169.39 314.30 178.25 305.25 C 187.10 296.19 198.56 282.76 211.25 294.75 C 223.93 306.75 210.30 320.41 201.25 329.25 C 192.20 338.09 182.74 346.16 174.75 355.75 C 166.77 365.34 150.80 377.92 140.25 366.75 C 129.70 355.58 119.02 351.05 119.98 335.98 C 120.93 320.90 144.24 317.36 151.00 331.00
M 380.00 322.00 
C 396.04 325.32 396.40 354.52 377.98 354.98 C 359.55 355.43 337.45 355.19 319.00 355.00 C 300.55 354.81 276.81 356.05 259.33 354.67 C 241.85 353.29 243.58 321.90 261.07 322.07 C 278.56 322.25 301.64 320.45 320.00 322.00 C 338.36 323.55 361.77 318.22 380.00 322.00 Z"/>
</g>
<g fill="#5DAC8F" fill-opacity="0.96" stroke="None">
<path d="
M 123.00 200.00 
C 127.82 205.93 135.27 213.01 141.00 218.00
C 153.81 229.29 165.46 215.31 174.25 206.25 C 183.04 197.19 191.63 188.51 200.75 179.75 C 209.87 170.99 223.16 159.51 212.25 146.75 C 201.34 134.00 186.91 145.00 178.75 154.75 C 170.60 164.50 160.77 171.12 153.00 181.00
C 145.96 175.12 135.25 170.04 126.70 175.70 C 118.14 181.36 117.64 192.26 123.00 200.00 Z"/>
</g>
<g fill="#5DAC90" fill-opacity="0.99" stroke="None">
<path d="
M 452.00 162.00 
C 452.64 168.64 452.65 175.54 453.00 182.00
C 455.11 194.99 454.00 210.23 454.00 224.00
C 464.33 224.00 474.67 224.00 485.00 224.00
C 485.00 210.72 485.04 196.50 486.00 184.00
C 485.84 176.04 484.73 167.79 484.00 160.00
C 481.37 163.71 471.68 159.34 468.00 161.00 C 464.32 162.66 454.51 158.41 452.00 162.00 Z"/>
</g>
<g fill="#5DAC90" fill-opacity="0.99" stroke="None">
<path d="
M 26.00 180.00 
C 26.24 193.82 27.00 209.44 27.00 224.00
C 37.33 224.00 47.67 224.00 58.00 224.00
C 58.00 210.49 57.19 195.68 59.00 183.00
C 59.26 176.15 59.32 168.99 60.00 162.00
C 58.26 159.52 47.25 160.78 44.00 161.00 C 40.75 161.22 30.61 159.18 28.00 161.00
C 27.46 166.56 26.48 174.00 26.00 180.00 Z"/>
</g>
<g fill="#5DAC90" fill-opacity="0.96" stroke="None">
<path d="
M 381.00 173.00 
C 365.48 169.39 345.67 175.05 330.00 173.00 C 314.33 170.95 293.93 174.86 279.00 173.00 C 264.07 171.14 245.09 173.66 247.67 191.33 C 250.25 209.00 269.28 206.41 284.00 206.00 C 298.72 205.59 319.70 206.78 335.00 206.00 C 350.30 205.22 369.68 208.67 383.77 203.77 C 397.86 198.87 392.91 175.77 381.00 173.00 Z"/>
</g>
<g fill="#59A99D" fill-opacity="0.32" stroke="None">
<path d="
M 26.00 331.00 
C 26.44 315.81 27.00 298.92 27.00 283.00
C 27.00 263.33 27.00 243.67 27.00 224.00
C 27.00 209.44 26.24 193.82 26.00 180.00
C 24.02 204.89 26.13 231.06 26.00 256.00 C 25.87 280.94 24.31 306.17 26.00 331.00 Z"/>
</g>
<g fill="#59AA9E" fill-opacity="0.67" stroke="None">
<path d="
M 453.00 331.00 
C 455.65 316.24 454.00 298.60 454.00 283.00
C 454.00 263.33 454.00 243.67 454.00 224.00
C 454.00 210.23 455.11 194.99 453.00 182.00
C 454.34 206.68 453.10 232.32 453.00 257.00 C 452.90 281.68 454.67 306.43 453.00 331.00 Z"/>
</g>
<g fill="#59AA9E" fill-opacity="0.67" stroke="None">
<path d="
M 58.00 224.00 
C 58.00 243.67 58.00 263.33 58.00 283.00
C 58.00 298.36 56.65 315.52 59.00 330.00
C 57.68 305.59 59.17 280.41 59.00 256.00 C 58.83 231.59 58.07 207.35 59.00 183.00
C 57.19 195.68 58.00 210.49 58.00 224.00 Z"/>
</g>
<g fill="#59A99E" fill-opacity="0.33" stroke="None">
<path d="
M 485.00 224.00 
C 485.00 243.67 485.00 263.33 485.00 283.00
C 485.00 298.90 485.56 315.90 486.00 331.00
C 487.66 306.62 485.54 281.41 486.00 257.00 C 486.46 232.59 486.49 208.37 486.00 184.00
C 485.04 196.50 485.00 210.72 485.00 224.00 Z"/>
</g>
<g fill="#58ACAC" fill-opacity="0.01" stroke="None">
<path d="
M 141.00 218.00 
C 135.27 213.01 127.82 205.93 123.00 200.00
C 127.36 206.29 134.81 213.40 141.00 218.00 Z"/>
</g>
<g fill="#59AA9D" fill-opacity="1.00" stroke="None">
<path d="
M 27.00 283.00 
C 37.33 283.00 47.67 283.00 58.00 283.00
C 58.00 263.33 58.00 243.67 58.00 224.00
C 47.67 224.00 37.33 224.00 27.00 224.00
C 27.00 243.67 27.00 263.33 27.00 283.00 Z"/>
</g>
<g fill="#59AA9D" fill-opacity="1.00" stroke="None">
<path d="
M 454.00 283.00 
C 464.33 283.00 474.67 283.00 485.00 283.00
C 485.00 263.33 485.00 243.67 485.00 224.00
C 474.67 224.00 464.33 224.00 454.00 224.00
C 454.00 243.67 454.00 263.33 454.00 283.00 Z"/>
</g>
<g fill="#56A8A9" fill-opacity="0.99" stroke="None">
<path d="
M 26.00 331.00 
C 26.28 335.13 27.00 338.70 27.00 343.00
C 29.20 338.60 37.25 341.76 42.00 341.00 C 46.75 340.24 54.94 341.57 60.00 341.00
C 59.85 337.09 59.21 333.84 59.00 330.00
C 56.65 315.52 58.00 298.36 58.00 283.00
C 47.67 283.00 37.33 283.00 27.00 283.00
C 27.00 298.92 26.44 315.81 26.00 331.00 Z"/>
</g>
<g fill="#56A8A9" fill-opacity="1.00" stroke="None">
<path d="
M 453.00 331.00 
C 452.78 334.20 452.18 336.77 452.00 340.00
C 454.65 343.90 465.00 339.36 469.00 341.00 C 473.00 342.64 482.62 338.24 485.00 343.00
C 485.00 338.72 485.72 335.07 486.00 331.00
C 485.56 315.90 485.00 298.90 485.00 283.00
C 474.67 283.00 464.33 283.00 454.00 283.00
C 454.00 298.60 455.65 316.24 453.00 331.00 Z"/>
</g>
<g fill="#54A7AD" fill-opacity="0.95" stroke="None">
<path d="
M 151.00 331.00 
C 144.24 317.36 120.93 320.90 119.98 335.98 C 119.02 351.05 129.70 355.58 140.25 366.75 C 150.80 377.92 166.77 365.34 174.75 355.75 C 182.74 346.16 192.20 338.09 201.25 329.25 C 210.30 320.41 223.93 306.75 211.25 294.75 C 198.56 282.76 187.10 296.19 178.25 305.25 C 169.39 314.30 160.80 323.78 151.00 331.00 Z"/>
</g>
<g fill="#54A7AE" fill-opacity="0.96" stroke="None">
<path d="
M 380.00 322.00 
C 361.77 318.22 338.36 323.55 320.00 322.00 C 301.64 320.45 278.56 322.25 261.07 322.07 C 243.58 321.90 241.85 353.29 259.33 354.67 C 276.81 356.05 300.55 354.81 319.00 355.00 C 337.45 355.19 359.55 355.43 377.98 354.98 C 396.40 354.52 396.04 325.32 380.00 322.00 Z"/>
</g>
<g fill="#52A6B5" fill-opacity="0.96" stroke="None">
<path d="
M 439.00 401.00 
C 442.36 398.88 452.23 399.49 456.00 400.00 C 459.77 400.51 471.91 397.70 474.00 401.00
C 480.26 382.70 485.00 362.86 485.00 343.00
C 482.62 338.24 473.00 342.64 469.00 341.00 C 465.00 339.36 454.65 343.90 452.00 340.00
C 450.87 360.84 448.16 382.48 439.00 401.00 Z"/>
</g>
<g fill="#52A6B5" fill-opacity="0.96" stroke="None">
<path d="
M 27.00 343.00 
C 27.00 362.92 31.73 382.68 38.00 401.00
C 39.81 398.14 51.44 399.88 55.00 400.00 C 58.56 400.12 69.61 398.33 73.00 400.00
C 63.92 382.23 60.77 361.09 60.00 341.00
C 54.94 341.57 46.75 340.24 42.00 341.00 C 37.25 341.76 29.20 338.60 27.00 343.00 Z"/>
</g>
<g fill="#4DA3C6" fill-opacity="0.96" stroke="None">
<path d="
M 38.00 401.00 
C 48.07 430.45 64.49 452.39 93.92 467.08 C 123.36 481.76 160.64 486.16 196.00 486.00 C 231.36 485.84 281.69 485.87 317.00 486.00 C 352.31 486.13 389.55 481.61 418.77 466.77 C 447.99 451.93 463.99 430.26 474.00 401.00
C 471.91 397.70 459.77 400.51 456.00 400.00 C 452.23 399.49 442.36 398.88 439.00 401.00
C 406.77 466.17 317.53 452.22 255.00 453.00 C 192.47 453.78 105.76 464.10 73.00 400.00
C 69.61 398.33 58.56 400.12 55.00 400.00 C 51.44 399.88 39.81 398.14 38.00 401.00 Z"/>
</g>
</svg>