<svg xmlns="http://www.w3.org/2000/svg" xmlns:v="https://svgstorm.com"
viewBox = "0 0 512 512"
width="512"
height="512">
<g fill="None" fill-opacity="0.0" stroke="#000000" stroke-opacity="0.00" stroke-width="0.3"><path d="
M 0.00 338.00 
C 16.22 289.94 65.16 257.05 100.25 219.25 C 135.34 181.45 173.90 146.91 209.75 109.75 C 245.60 72.59 283.79 36.28 320.00 0.00
L 0.00 0.00
L 0.00 338.00 Z"/>
</g>
<g fill="None" fill-opacity="0.0" stroke="#052A75" stroke-opacity="0.97" stroke-width="0.3"><path d="
M 0.00 338.00 
L 0.00 363.00
C 7.75 397.39 40.17 421.67 65.25 446.75 C 90.33 471.84 114.67 504.29 149.00 512.00
L 173.00 512.00
C 221.62 496.86 254.34 447.34 292.25 412.25 C 330.15 377.15 365.00 338.13 402.25 302.25 C 439.49 266.37 475.66 228.23 512.00 192.00
L 512.00 182.00
C 452.09 121.26 390.69 59.86 330.00 0.00
L 320.00 0.00
C 283.79 36.28 245.60 72.59 209.75 109.75 C 173.90 146.91 135.34 181.45 100.25 219.25 C 65.16 257.05 16.22 289.94 0.00 338.00
M 407.00 107.00 
C 433.42 133.42 460.44 159.82 487.00 186.00
C 435.42 241.42 378.72 294.12 326.00 349.00
C 315.10 341.22 305.54 329.74 296.00 320.00
C 295.68 319.80 295.27 319.21 295.00 319.00
C 290.17 315.24 286.19 310.53 281.75 306.25 C 277.32 301.97 273.17 297.61 268.75 293.25 C 264.33 288.89 259.65 284.14 255.25 279.75 C 250.84 275.36 246.63 271.15 242.25 266.75 C 237.86 262.35 233.09 257.65 228.75 253.25 C 224.42 248.85 219.97 244.64 215.75 240.25 C 211.53 235.86 206.78 231.67 202.75 227.25 C 198.73 222.82 192.85 218.20 189.25 213.75 C 185.65 209.30 178.81 205.24 176.25 200.75 C 173.69 196.26 163.00 191.84 163.00 187.00
C 163.00 182.15 173.04 178.24 175.75 173.75 C 178.46 169.26 185.56 164.74 189.25 160.25 C 192.94 155.75 198.62 151.25 202.75 146.75 C 206.89 142.25 211.91 137.75 216.25 133.25 C 220.58 128.75 225.33 124.25 229.75 119.75 C 234.18 115.25 238.78 110.75 243.25 106.25 C 247.71 101.75 252.27 97.25 256.75 92.75 C 261.23 88.25 265.76 83.75 270.25 79.25 C 274.73 74.74 279.27 70.26 283.75 65.75 C 288.23 61.24 292.78 56.77 297.25 52.25 C 301.71 47.72 306.33 43.31 310.75 38.75 C 315.18 34.19 320.11 29.89 324.00 25.00
C 352.58 50.42 379.78 79.61 407.00 107.00
M 277.00 331.00 
C 280.33 334.33 285.39 338.03 288.25 341.75 C 291.11 345.47 297.09 349.01 299.25 352.75 C 301.40 356.49 310.00 359.92 310.00 364.00
C 310.00 369.12 298.98 373.51 296.25 378.25 C 293.52 382.99 286.01 387.53 282.25 392.25 C 278.48 396.97 272.45 401.52 268.25 406.25 C 264.05 410.98 258.57 415.46 254.25 420.25 C 249.93 425.04 244.48 429.52 240.00 434.00
C 217.97 456.03 189.52 497.13 155.00 491.00 C 120.48 484.87 101.42 450.47 76.25 427.75 C 51.08 405.04 15.85 377.39 22.00 341.00
C 23.62 331.44 27.61 323.47 34.00 316.00
C 47.07 300.71 62.85 287.15 77.00 273.00
C 81.55 268.45 85.92 263.10 90.75 258.75 C 95.58 254.40 99.95 249.00 104.75 244.75 C 109.55 240.51 114.44 234.08 119.25 230.25 C 124.05 226.42 128.41 218.98 133.25 216.25 C 138.08 213.52 142.81 202.00 148.00 202.00
C 153.17 202.00 157.43 212.87 162.25 215.75 C 167.06 218.63 171.94 226.32 176.75 230.25 C 181.56 234.18 186.46 240.38 191.25 244.75 C 196.04 249.12 200.46 254.15 205.25 258.75 C 210.03 263.35 214.94 268.55 219.75 273.25 C 224.56 277.95 229.43 283.04 234.25 287.75 C 239.06 292.46 243.39 297.06 248.25 301.75 C 253.10 306.44 257.79 311.62 262.75 316.25 C 267.71 320.88 272.30 326.30 277.00 331.00 Z"/>
</g>
<g fill="None" fill-opacity="0.0" stroke="#000000" stroke-opacity="0.00" stroke-width="0.3"><path d="
M 512.00 182.00 
L 512.00 0.00
L 330.00 0.00
C 390.69 59.86 452.09 121.26 512.00 182.00 Z"/>
</g>
<g fill="None" fill-opacity="0.0" stroke="#3C85A8" stroke-opacity="1.00" stroke-width="0.3"><path d="
M 163.00 187.00 
C 217.00 133.83 270.88 79.95 324.00 26.00
C 352.75 50.92 378.78 80.95 407.00 107.00
C 379.78 79.61 352.58 50.42 324.00 25.00
C 320.11 29.89 315.18 34.19 310.75 38.75 C 306.33 43.31 301.71 47.72 297.25 52.25 C 292.78 56.77 288.23 61.24 283.75 65.75 C 279.27 70.26 274.73 74.74 270.25 79.25 C 265.76 83.75 261.23 88.25 256.75 92.75 C 252.27 97.25 247.71 101.75 243.25 106.25 C 238.78 110.75 234.18 115.25 229.75 119.75 C 225.33 124.25 220.58 128.75 216.25 133.25 C 211.91 137.75 206.89 142.25 202.75 146.75 C 198.62 151.25 192.94 155.75 189.25 160.25 C 185.56 164.74 178.46 169.26 175.75 173.75 C 173.04 178.24 163.00 182.15 163.00 187.00 Z"/>
</g>
<g fill="None" fill-opacity="0.0" stroke="#66CBD0" stroke-opacity="1.00" stroke-width="0.3"><path d="
M 163.00 187.00 
C 163.00 191.84 173.69 196.26 176.25 200.75 C 178.81 205.24 185.65 209.30 189.25 213.75 C 192.85 218.20 198.73 222.82 202.75 227.25 C 206.78 231.67 211.53 235.86 215.75 240.25 C 219.97 244.64 224.42 248.85 228.75 253.25 C 233.09 257.65 237.86 262.35 242.25 266.75 C 246.63 271.15 250.84 275.36 255.25 279.75 C 259.65 284.14 264.33 288.89 268.75 293.25 C 273.17 297.61 277.32 301.97 281.75 306.25 C 286.19 310.53 290.17 315.24 295.00 319.00
C 315.81 302.75 332.62 287.78 348.77 265.77 C 364.92 243.76 376.72 222.83 387.77 196.77 C 398.82 170.71 402.28 136.54 407.00 108.00
C 407.08 107.51 407.00 107.00 407.00 107.00
C 378.78 80.95 352.75 50.92 324.00 26.00
C 270.88 79.95 217.00 133.83 163.00 187.00 Z"/>
</g>
<g fill="None" fill-opacity="0.0" stroke="#1971A9" stroke-opacity="1.00" stroke-width="0.3"><path d="
M 407.00 108.00 
C 421.95 118.45 432.30 134.86 446.25 146.75 C 460.19 158.64 471.90 174.35 486.00 186.00
C 434.75 241.09 378.38 293.45 326.00 348.00
C 314.93 340.72 306.54 328.41 296.00 320.00
C 305.54 329.74 315.10 341.22 326.00 349.00
C 378.72 294.12 435.42 241.42 487.00 186.00
C 460.44 159.82 433.42 133.42 407.00 107.00
C 407.00 107.00 407.08 107.51 407.00 108.00 Z"/>
</g>
<g fill="None" fill-opacity="0.0" stroke="#27A2CC" stroke-opacity="1.00" stroke-width="0.3"><path d="
M 295.00 319.00 
C 295.27 319.21 295.68 319.80 296.00 320.00
C 306.54 328.41 314.93 340.72 326.00 348.00
C 378.38 293.45 434.75 241.09 486.00 186.00
C 471.90 174.35 460.19 158.64 446.25 146.75 C 432.30 134.86 421.95 118.45 407.00 108.00
C 402.28 136.54 398.82 170.71 387.77 196.77 C 376.72 222.83 364.92 243.76 348.77 265.77 C 332.62 287.78 315.81 302.75 295.00 319.00 Z"/>
</g>
<g fill="None" fill-opacity="0.0" stroke="#000000" stroke-opacity="0.00" stroke-width="0.3"><path d="
M 173.00 512.00 
L 512.00 512.00
L 512.00 192.00
C 475.66 228.23 439.49 266.37 402.25 302.25 C 365.00 338.13 330.15 377.15 292.25 412.25 C 254.34 447.34 221.62 496.86 173.00 512.00 Z"/>
</g>
<g fill="None" fill-opacity="0.0" stroke="#955B8E" stroke-opacity="1.00" stroke-width="0.3"><path d="
M 77.00 273.00 
C 90.52 263.54 100.26 248.61 112.75 237.75 C 125.25 226.90 136.23 213.45 148.00 202.00
C 142.81 202.00 138.08 213.52 133.25 216.25 C 128.41 218.98 124.05 226.42 119.25 230.25 C 114.44 234.08 109.55 240.51 104.75 244.75 C 99.95 249.00 95.58 254.40 90.75 258.75 C 85.92 263.10 81.55 268.45 77.00 273.00 Z"/>
</g>
<g fill="None" fill-opacity="0.0" stroke="#FC7C9F" stroke-opacity="1.00" stroke-width="0.3"><path d="
M 77.00 273.00 
C 76.77 273.16 77.00 274.00 77.00 274.00
C 76.51 294.87 79.90 317.27 96.75 331.25 C 113.60 345.22 120.63 356.87 136.00 371.00
C 95.40 370.77 56.96 359.76 22.00 341.00
C 15.85 377.39 51.08 405.04 76.25 427.75 C 101.42 450.47 120.48 484.87 155.00 491.00 C 189.52 497.13 217.97 456.03 240.00 434.00
C 226.99 441.17 206.70 432.87 195.25 426.75 C 183.81 420.62 175.33 409.29 165.75 400.25 C 156.18 391.21 146.95 381.47 138.00 372.00
C 187.99 371.67 235.34 357.12 277.00 331.00
C 272.30 326.30 267.71 320.88 262.75 316.25 C 257.79 311.62 253.10 306.44 248.25 301.75 C 243.39 297.06 239.06 292.46 234.25 287.75 C 229.43 283.04 224.56 277.95 219.75 273.25 C 214.94 268.55 210.03 263.35 205.25 258.75 C 200.46 254.15 196.04 249.12 191.25 244.75 C 186.46 240.38 181.56 234.18 176.75 230.25 C 171.94 226.32 167.06 218.63 162.25 215.75 C 157.43 212.87 153.17 202.00 148.00 202.00
C 136.23 213.45 125.25 226.90 112.75 237.75 C 100.26 248.61 90.52 263.54 77.00 273.00 Z"/>
</g>
<g fill="None" fill-opacity="0.0" stroke="#947F9B" stroke-opacity="1.00" stroke-width="0.3"><path d="
M 34.00 316.00 
C 47.43 302.57 61.50 284.83 77.00 274.00
C 77.00 274.00 76.77 273.16 77.00 273.00
C 62.85 287.15 47.07 300.71 34.00 316.00 Z"/>
</g>
<g fill="None" fill-opacity="0.0" stroke="#FCBDB8" stroke-opacity="1.00" stroke-width="0.3"><path d="
M 34.00 316.00 
C 27.61 323.47 23.62 331.44 22.00 341.00
C 56.96 359.76 95.40 370.77 136.00 371.00
C 120.63 356.87 113.60 345.22 96.75 331.25 C 79.90 317.27 76.51 294.87 77.00 274.00
C 61.50 284.83 47.43 302.57 34.00 316.00 Z"/>
</g>
<g fill="None" fill-opacity="0.0" stroke="#DB4B86" stroke-opacity="1.00" stroke-width="0.3"><path d="
M 240.00 434.00 
C 248.97 429.05 254.22 417.08 262.75 410.75 C 271.29 404.43 278.00 394.24 286.25 387.25 C 294.49 380.26 301.51 370.64 310.00 364.00
C 310.00 359.92 301.40 356.49 299.25 352.75 C 297.09 349.01 291.11 345.47 288.25 341.75 C 285.39 338.03 280.33 334.33 277.00 331.00
C 235.34 357.12 187.99 371.67 138.00 372.00
C 146.95 381.47 156.18 391.21 165.75 400.25 C 175.33 409.29 183.81 420.62 195.25 426.75 C 206.70 432.87 226.99 441.17 240.00 434.00 Z"/>
</g>
<g fill="None" fill-opacity="0.0" stroke="#000000" stroke-opacity="0.00" stroke-width="0.3"><path d="
M 0.00 512.00 
L 149.00 512.00
C 114.67 504.29 90.33 471.84 65.25 446.75 C 40.17 421.67 7.75 397.39 0.00 363.00
L 0.00 512.00 Z"/>
</g>
<g fill="None" fill-opacity="0.0" stroke="#8A3E80" stroke-opacity="1.00" stroke-width="0.3"><path d="
M 240.00 434.00 
C 244.48 429.52 249.93 425.04 254.25 420.25 C 258.57 415.46 264.05 410.98 268.25 406.25 C 272.45 401.52 278.48 396.97 282.25 392.25 C 286.01 387.53 293.52 382.99 296.25 378.25 C 298.98 373.51 310.00 369.12 310.00 364.00
C 301.51 370.64 294.49 380.26 286.25 387.25 C 278.00 394.24 271.29 404.43 262.75 410.75 C 254.22 417.08 248.97 429.05 240.00 434.00 Z"/>
</g>
<g fill="#000000" fill-opacity="0.00" stroke="None">
<path d="
M 0.00 338.00 
C 16.22 289.94 65.16 257.05 100.25 219.25 C 135.34 181.45 173.90 146.91 209.75 109.75 C 245.60 72.59 283.79 36.28 320.00 0.00
L 0.00 0.00
L 0.00 338.00 Z"/>
</g>
<g fill="#052A75" fill-opacity="0.97" stroke="None">
<path d="
M 0.00 338.00 
L 0.00 363.00
C 7.75 397.39 40.17 421.67 65.25 446.75 C 90.33 471.84 114.67 504.29 149.00 512.00
L 173.00 512.00
C 221.62 496.86 254.34 447.34 292.25 412.25 C 330.15 377.15 365.00 338.13 402.25 302.25 C 439.49 266.37 475.66 228.23 512.00 192.00
L 512.00 182.00
C 452.09 121.26 390.69 59.86 330.00 0.00
L 320.00 0.00
C 283.79 36.28 245.60 72.59 209.75 109.75 C 173.90 146.91 135.34 181.45 100.25 219.25 C 65.16 257.05 16.22 289.94 0.00 338.00
M 407.00 107.00 
C 433.42 133.42 460.44 159.82 487.00 186.00
C 435.42 241.42 378.72 294.12 326.00 349.00
C 315.10 341.22 305.54 329.74 296.00 320.00
C 295.68 319.80 295.27 319.21 295.00 319.00
C 290.17 315.24 286.19 310.53 281.75 306.25 C 277.32 301.97 273.17 297.61 268.75 293.25 C 264.33 288.89 259.65 284.14 255.25 279.75 C 250.84 275.36 246.63 271.15 242.25 266.75 C 237.86 262.35 233.09 257.65 228.75 253.25 C 224.42 248.85 219.97 244.64 215.75 240.25 C 211.53 235.86 206.78 231.67 202.75 227.25 C 198.73 222.82 192.85 218.20 189.25 213.75 C 185.65 209.30 178.81 205.24 176.25 200.75 C 173.69 196.26 163.00 191.84 163.00 187.00
C 163.00 182.15 173.04 178.24 175.75 173.75 C 178.46 169.26 185.56 164.74 189.25 160.25 C 192.94 155.75 198.62 151.25 202.75 146.75 C 206.89 142.25 211.91 137.75 216.25 133.25 C 220.58 128.75 225.33 124.25 229.75 119.75 C 234.18 115.25 238.78 110.75 243.25 106.25 C 247.71 101.75 252.27 97.25 256.75 92.75 C 261.23 88.25 265.76 83.75 270.25 79.25 C 274.73 74.74 279.27 70.26 283.75 65.75 C 288.23 61.24 292.78 56.77 297.25 52.25 C 301.71 47.72 306.33 43.31 310.75 38.75 C 315.18 34.19 320.11 29.89 324.00 25.00
C 352.58 50.42 379.78 79.61 407.00 107.00
M 277.00 331.00 
C 280.33 334.33 285.39 338.03 288.25 341.75 C 291.11 345.47 297.09 349.01 299.25 352.75 C 301.40 356.49 310.00 359.92 310.00 364.00
C 310.00 369.12 298.98 373.51 296.25 378.25 C 293.52 382.99 286.01 387.53 282.25 392.25 C 278.48 396.97 272.45 401.52 268.25 406.25 C 264.05 410.98 258.57 415.46 254.25 420.25 C 249.93 425.04 244.48 429.52 240.00 434.00
C 217.97 456.03 189.52 497.13 155.00 491.00 C 120.48 484.87 101.42 450.47 76.25 427.75 C 51.08 405.04 15.85 377.39 22.00 341.00
C 23.62 331.44 27.61 323.47 34.00 316.00
C 47.07 300.71 62.85 287.15 77.00 273.00
C 81.55 268.45 85.92 263.10 90.75 258.75 C 95.58 254.40 99.95 249.00 104.75 244.75 C 109.55 240.51 114.44 234.08 119.25 230.25 C 124.05 226.42 128.41 218.98 133.25 216.25 C 138.08 213.52 142.81 202.00 148.00 202.00
C 153.17 202.00 157.43 212.87 162.25 215.75 C 167.06 218.63 171.94 226.32 176.75 230.25 C 181.56 234.18 186.46 240.38 191.25 244.75 C 196.04 249.12 200.46 254.15 205.25 258.75 C 210.03 263.35 214.94 268.55 219.75 273.25 C 224.56 277.95 229.43 283.04 234.25 287.75 C 239.06 292.46 243.39 297.06 248.25 301.75 C 253.10 306.44 257.79 311.62 262.75 316.25 C 267.71 320.88 272.30 326.30 277.00 331.00 Z"/>
</g>
<g fill="#000000" fill-opacity="0.00" stroke="None">
<path d="
M 512.00 182.00 
L 512.00 0.00
L 330.00 0.00
C 390.69 59.86 452.09 121.26 512.00 182.00 Z"/>
</g>
<g fill="#3C85A8" fill-opacity="1.00" stroke="None">
<path d="
M 163.00 187.00 
C 217.00 133.83 270.88 79.95 324.00 26.00
C 352.75 50.92 378.78 80.95 407.00 107.00
C 379.78 79.61 352.58 50.42 324.00 25.00
C 320.11 29.89 315.18 34.19 310.75 38.75 C 306.33 43.31 301.71 47.72 297.25 52.25 C 292.78 56.77 288.23 61.24 283.75 65.75 C 279.27 70.26 274.73 74.74 270.25 79.25 C 265.76 83.75 261.23 88.25 256.75 92.75 C 252.27 97.25 247.71 101.75 243.25 106.25 C 238.78 110.75 234.18 115.25 229.75 119.75 C 225.33 124.25 220.58 128.75 216.25 133.25 C 211.91 137.75 206.89 142.25 202.75 146.75 C 198.62 151.25 192.94 155.75 189.25 160.25 C 185.56 164.74 178.46 169.26 175.75 173.75 C 173.04 178.24 163.00 182.15 163.00 187.00 Z"/>
</g>
<g fill="#66CBD0" fill-opacity="1.00" stroke="None">
<path d="
M 163.00 187.00 
C 163.00 191.84 173.69 196.26 176.25 200.75 C 178.81 205.24 185.65 209.30 189.25 213.75 C 192.85 218.20 198.73 222.82 202.75 227.25 C 206.78 231.67 211.53 235.86 215.75 240.25 C 219.97 244.64 224.42 248.85 228.75 253.25 C 233.09 257.65 237.86 262.35 242.25 266.75 C 246.63 271.15 250.84 275.36 255.25 279.75 C 259.65 284.14 264.33 288.89 268.75 293.25 C 273.17 297.61 277.32 301.97 281.75 306.25 C 286.19 310.53 290.17 315.24 295.00 319.00
C 315.81 302.75 332.62 287.78 348.77 265.77 C 364.92 243.76 376.72 222.83 387.77 196.77 C 398.82 170.71 402.28 136.54 407.00 108.00
C 407.08 107.51 407.00 107.00 407.00 107.00
C 378.78 80.95 352.75 50.92 324.00 26.00
C 270.88 79.95 217.00 133.83 163.00 187.00 Z"/>
</g>
<g fill="#1971A9" fill-opacity="1.00" stroke="None">
<path d="
M 407.00 108.00 
C 421.95 118.45 432.30 134.86 446.25 146.75 C 460.19 158.64 471.90 174.35 486.00 186.00
C 434.75 241.09 378.38 293.45 326.00 348.00
C 314.93 340.72 306.54 328.41 296.00 320.00
C 305.54 329.74 315.10 341.22 326.00 349.00
C 378.72 294.12 435.42 241.42 487.00 186.00
C 460.44 159.82 433.42 133.42 407.00 107.00
C 407.00 107.00 407.08 107.51 407.00 108.00 Z"/>
</g>
<g fill="#27A2CC" fill-opacity="1.00" stroke="None">
<path d="
M 295.00 319.00 
C 295.27 319.21 295.68 319.80 296.00 320.00
C 306.54 328.41 314.93 340.72 326.00 348.00
C 378.38 293.45 434.75 241.09 486.00 186.00
C 471.90 174.35 460.19 158.64 446.25 146.75 C 432.30 134.86 421.95 118.45 407.00 108.00
C 402.28 136.54 398.82 170.71 387.77 196.77 C 376.72 222.83 364.92 243.76 348.77 265.77 C 332.62 287.78 315.81 302.75 295.00 319.00 Z"/>
</g>
<g fill="#000000" fill-opacity="0.00" stroke="None">
<path d="
M 173.00 512.00 
L 512.00 512.00
L 512.00 192.00
C 475.66 228.23 439.49 266.37 402.25 302.25 C 365.00 338.13 330.15 377.15 292.25 412.25 C 254.34 447.34 221.62 496.86 173.00 512.00 Z"/>
</g>
<g fill="#955B8E" fill-opacity="1.00" stroke="None">
<path d="
M 77.00 273.00 
C 90.52 263.54 100.26 248.61 112.75 237.75 C 125.25 226.90 136.23 213.45 148.00 202.00
C 142.81 202.00 138.08 213.52 133.25 216.25 C 128.41 218.98 124.05 226.42 119.25 230.25 C 114.44 234.08 109.55 240.51 104.75 244.75 C 99.95 249.00 95.58 254.40 90.75 258.75 C 85.92 263.10 81.55 268.45 77.00 273.00 Z"/>
</g>
<g fill="#FC7C9F" fill-opacity="1.00" stroke="None">
<path d="
M 77.00 273.00 
C 76.77 273.16 77.00 274.00 77.00 274.00
C 76.51 294.87 79.90 317.27 96.75 331.25 C 113.60 345.22 120.63 356.87 136.00 371.00
C 95.40 370.77 56.96 359.76 22.00 341.00
C 15.85 377.39 51.08 405.04 76.25 427.75 C 101.42 450.47 120.48 484.87 155.00 491.00 C 189.52 497.13 217.97 456.03 240.00 434.00
C 226.99 441.17 206.70 432.87 195.25 426.75 C 183.81 420.62 175.33 409.29 165.75 400.25 C 156.18 391.21 146.95 381.47 138.00 372.00
C 187.99 371.67 235.34 357.12 277.00 331.00
C 272.30 326.30 267.71 320.88 262.75 316.25 C 257.79 311.62 253.10 306.44 248.25 301.75 C 243.39 297.06 239.06 292.46 234.25 287.75 C 229.43 283.04 224.56 277.95 219.75 273.25 C 214.94 268.55 210.03 263.35 205.25 258.75 C 200.46 254.15 196.04 249.12 191.25 244.75 C 186.46 240.38 181.56 234.18 176.75 230.25 C 171.94 226.32 167.06 218.63 162.25 215.75 C 157.43 212.87 153.17 202.00 148.00 202.00
C 136.23 213.45 125.25 226.90 112.75 237.75 C 100.26 248.61 90.52 263.54 77.00 273.00 Z"/>
</g>
<g fill="#947F9B" fill-opacity="1.00" stroke="None">
<path d="
M 34.00 316.00 
C 47.43 302.57 61.50 284.83 77.00 274.00
C 77.00 274.00 76.77 273.16 77.00 273.00
C 62.85 287.15 47.07 300.71 34.00 316.00 Z"/>
</g>
<g fill="#FCBDB8" fill-opacity="1.00" stroke="None">
<path d="
M 34.00 316.00 
C 27.61 323.47 23.62 331.44 22.00 341.00
C 56.96 359.76 95.40 370.77 136.00 371.00
C 120.63 356.87 113.60 345.22 96.75 331.25 C 79.90 317.27 76.51 294.87 77.00 274.00
C 61.50 284.83 47.43 302.57 34.00 316.00 Z"/>
</g>
<g fill="#DB4B86" fill-opacity="1.00" stroke="None">
<path d="
M 240.00 434.00 
C 248.97 429.05 254.22 417.08 262.75 410.75 C 271.29 404.43 278.00 394.24 286.25 387.25 C 294.49 380.26 301.51 370.64 310.00 364.00
C 310.00 359.92 301.40 356.49 299.25 352.75 C 297.09 349.01 291.11 345.47 288.25 341.75 C 285.39 338.03 280.33 334.33 277.00 331.00
C 235.34 357.12 187.99 371.67 138.00 372.00
C 146.95 381.47 156.18 391.21 165.75 400.25 C 175.33 409.29 183.81 420.62 195.25 426.75 C 206.70 432.87 226.99 441.17 240.00 434.00 Z"/>
</g>
<g fill="#000000" fill-opacity="0.00" stroke="None">
<path d="
M 0.00 512.00 
L 149.00 512.00
C 114.67 504.29 90.33 471.84 65.25 446.75 C 40.17 421.67 7.75 397.39 0.00 363.00
L 0.00 512.00 Z"/>
</g>
<g fill="#8A3E80" fill-opacity="1.00" stroke="None">
<path d="
M 240.00 434.00 
C 244.48 429.52 249.93 425.04 254.25 420.25 C 258.57 415.46 264.05 410.98 268.25 406.25 C 272.45 401.52 278.48 396.97 282.25 392.25 C 286.01 387.53 293.52 382.99 296.25 378.25 C 298.98 373.51 310.00 369.12 310.00 364.00
C 301.51 370.64 294.49 380.26 286.25 387.25 C 278.00 394.24 271.29 404.43 262.75 410.75 C 254.22 417.08 248.97 429.05 240.00 434.00 Z"/>
</g>
</svg>