<svg xmlns="http://www.w3.org/2000/svg" xmlns:v="https://svgstorm.com"
viewBox = "0 0 512 512"
width="512"
height="512">
<g fill="None" fill-opacity="0.0" stroke="#000000" stroke-opacity="0.01" stroke-width="0.3"><path d="
M 0.00 269.00 
C 3.67 182.34 52.35 102.74 132.23 63.23 C 212.11 23.72 321.85 33.92 390.00 95.00
C 389.66 81.46 385.54 60.73 396.25 51.25 C 406.96 41.76 412.43 34.22 422.25 25.25 C 432.07 16.27 438.64 7.17 449.00 0.00
L 0.00 0.00
L 0.00 269.00 Z"/>
</g>
<g fill="None" fill-opacity="0.0" stroke="#000000" stroke-opacity="1.00" stroke-width="0.3"><path d="
M 0.00 269.00 
L 0.00 278.00
C 2.06 282.43 0.65 288.81 1.00 294.00
C 1.80 305.68 4.52 319.99 6.98 331.02 C 9.43 342.06 13.68 353.70 17.32 363.68 C 20.97 373.66 27.15 383.76 31.75 392.25 C 36.36 400.74 43.25 412.01 48.75 418.25 C 54.26 424.49 63.54 442.67 72.00 435.00
C 80.84 426.99 62.53 414.80 58.23 406.77 C 53.93 398.74 44.63 388.63 40.23 378.77 C 35.83 368.91 30.24 357.68 26.68 346.32 C 23.12 334.96 19.07 321.37 17.22 308.78 C 15.37 296.18 14.36 278.27 15.00 265.00 C 15.64 251.73 18.09 237.20 20.93 224.93 C 23.77 212.66 27.21 200.99 31.93 189.93 C 36.64 178.86 41.88 168.78 47.92 158.92 C 53.96 149.07 60.28 141.16 67.30 132.30 C 74.32 123.44 81.66 116.57 90.25 109.25 C 98.84 101.92 106.44 95.27 116.25 89.25 C 126.05 83.23 135.68 77.61 146.69 72.69 C 157.71 67.78 168.62 64.05 181.01 61.01 C 193.40 57.96 206.26 54.93 220.01 54.01 C 233.75 53.09 251.50 54.49 265.00 56.00
C 274.58 57.07 285.78 58.40 294.67 61.33 C 303.56 64.25 313.49 66.70 321.68 70.32 C 329.86 73.95 338.70 77.61 345.70 82.30 C 352.69 87.00 362.39 90.45 367.75 96.25 C 373.11 102.06 384.88 105.26 387.00 113.00
C 388.27 117.64 374.87 124.59 371.75 129.75 C 368.63 134.91 358.19 141.36 355.00 147.00
C 342.50 139.07 333.43 130.12 319.92 123.08 C 306.41 116.04 292.68 110.28 277.33 106.67 C 261.98 103.06 239.53 100.64 223.00 102.00 C 206.47 103.36 189.67 107.69 174.93 112.93 C 160.18 118.17 149.20 125.40 136.75 133.75 C 124.31 142.11 115.67 150.39 105.75 161.75 C 95.84 173.11 88.91 183.45 82.08 197.08 C 75.24 210.70 69.55 224.98 66.67 240.67 C 63.79 256.36 61.74 278.75 64.00 295.00 C 66.26 311.25 70.39 327.25 76.31 341.69 C 82.22 356.14 88.96 367.00 97.75 379.25 C 106.55 391.49 115.02 399.80 126.70 409.30 C 138.37 418.80 148.81 425.56 162.69 432.31 C 176.58 439.05 191.92 443.30 207.67 446.33 C 223.43 449.35 246.13 449.66 262.01 447.01 C 277.89 444.36 293.81 440.07 307.69 433.69 C 321.58 427.32 332.94 420.42 344.25 411.25 C 355.56 402.08 365.47 393.26 373.75 381.75 C 382.04 370.25 391.26 357.90 395.78 344.78 C 400.29 331.65 413.05 311.97 401.00 302.00
C 388.73 299.92 389.97 320.83 386.02 329.02 C 382.08 337.22 377.55 348.94 372.23 357.23 C 366.91 365.52 360.61 374.27 354.00 382.00
C 350.63 385.94 346.89 389.67 343.00 393.00
C 312.42 419.13 276.75 433.89 236.00 434.00 C 195.25 434.11 159.54 418.10 129.00 392.00
C 125.75 389.22 122.74 386.20 120.00 383.00
C 93.60 352.11 76.34 313.24 78.00 272.00 C 79.66 230.76 94.56 193.03 123.75 163.75 C 152.94 134.47 189.01 119.09 230.00 117.00 C 270.99 114.91 313.08 130.03 343.00 158.00
C 332.16 169.66 320.62 181.22 309.00 192.00
C 267.13 153.04 197.41 157.29 157.75 197.75 C 118.10 238.22 114.94 306.86 154.00 349.00
C 156.92 351.92 160.13 355.13 163.00 358.00
C 206.63 395.28 273.04 394.78 314.25 354.25 C 355.45 313.71 358.32 245.55 320.00 203.00
C 331.27 191.55 342.44 178.42 355.00 169.00
C 363.50 179.37 369.33 188.94 376.31 200.70 C 383.28 212.45 386.60 225.84 390.98 239.02 C 395.35 252.21 390.34 273.69 402.00 282.00
C 414.46 283.02 409.29 264.11 409.00 256.00 C 408.71 247.89 405.35 234.32 403.02 225.98 C 400.70 217.63 396.92 208.71 393.23 200.77 C 389.54 192.84 384.99 185.05 380.23 177.77 C 375.47 170.49 368.87 164.59 365.00 157.00
C 376.74 147.42 387.75 132.43 399.00 125.00
C 406.86 127.16 411.08 139.26 416.75 145.25 C 422.42 151.23 426.94 161.48 431.77 169.23 C 436.60 176.98 440.32 186.92 443.92 196.08 C 447.53 205.23 450.67 215.75 452.93 226.07 C 455.19 236.40 457.20 248.76 458.00 260.00 C 458.79 271.24 457.70 285.96 457.02 297.02 C 456.35 308.09 453.87 320.00 451.22 330.22 C 448.57 340.44 445.63 350.38 441.68 359.68 C 437.73 368.98 433.53 377.26 428.70 385.70 C 423.86 394.14 419.06 401.71 413.25 409.25 C 407.43 416.79 402.34 422.80 395.75 429.75 C 389.16 436.71 382.55 442.20 375.25 448.25 C 367.95 454.30 360.42 459.08 352.30 464.30 C 344.19 469.53 335.96 473.59 326.92 477.92 C 317.89 482.26 307.86 484.88 297.99 487.99 C 288.13 491.10 276.53 493.50 266.00 495.00
C 252.31 496.96 235.54 497.20 221.93 496.07 C 208.31 494.95 193.12 493.18 180.98 490.02 C 168.83 486.87 156.80 481.70 146.31 477.69 C 135.81 473.69 124.14 465.38 115.77 461.23 C 107.40 457.08 93.88 439.23 87.00 449.00
C 80.61 458.07 96.26 464.78 103.08 469.92 C 109.91 475.05 120.45 481.33 129.23 485.77 C 138.01 490.21 148.64 494.67 158.68 498.32 C 168.71 501.97 180.91 504.69 192.00 507.00 C 203.10 509.30 217.78 510.78 229.00 512.00
L 243.00 512.00
C 246.77 509.92 252.47 511.40 257.00 511.00
C 340.53 503.65 414.17 452.66 450.92 374.92 C 487.68 297.19 477.02 187.84 417.00 122.00
C 430.33 122.11 450.70 126.58 460.25 116.25 C 469.79 105.92 477.16 99.80 486.25 90.25 C 495.33 80.70 503.72 73.45 512.00 64.00
L 512.00 59.00
C 506.86 44.16 487.16 51.15 475.00 48.00
C 478.48 40.33 501.22 29.73 491.75 20.25 C 482.28 10.77 472.50 35.41 464.00 37.00
C 460.71 24.90 467.90 5.07 453.00 0.00
L 449.00 0.00
C 438.64 7.17 432.07 16.27 422.25 25.25 C 412.43 34.22 406.96 41.76 396.25 51.25 C 385.54 60.73 389.66 81.46 390.00 95.00
C 321.85 33.92 212.11 23.72 132.23 63.23 C 52.35 102.74 3.67 182.34 0.00 269.00
M 448.00 21.00 
C 447.64 31.03 453.93 47.54 446.25 55.25 C 438.56 62.96 433.07 68.52 425.75 75.75 C 418.43 82.98 412.55 89.43 405.00 96.00
C 405.40 85.83 400.37 68.45 407.75 60.75 C 415.13 53.06 420.67 47.90 427.75 40.75 C 434.84 33.61 440.66 27.46 448.00 21.00
M 491.00 64.00 
C 484.48 71.57 478.40 76.92 471.25 84.25 C 464.09 91.58 458.37 96.97 450.75 104.75 C 443.13 112.53 426.55 105.95 416.00 107.00
C 422.51 99.48 428.62 94.02 435.75 86.75 C 442.89 79.49 448.66 73.90 456.25 66.25 C 463.83 58.60 480.73 64.02 491.00 64.00
M 298.00 202.00 
C 289.06 214.74 275.07 224.79 265.00 237.00
C 237.97 217.61 198.28 230.99 190.22 264.22 C 182.17 297.46 214.52 329.77 247.67 321.67 C 280.83 313.57 294.53 274.21 275.00 247.00
C 286.33 236.50 297.55 225.29 308.00 214.00
C 343.48 248.79 338.80 311.01 302.25 345.25 C 265.69 379.49 205.66 379.01 169.75 343.25 C 133.85 307.49 131.58 249.01 165.30 211.30 C 199.03 173.59 260.00 169.03 298.00 202.00
M 244.00 243.00 
C 254.56 244.89 252.47 250.11 245.75 255.75 C 239.03 261.39 237.23 264.58 230.75 270.75 C 224.27 276.93 236.62 288.26 242.25 280.25 C 247.87 272.23 251.21 274.18 256.75 265.75 C 262.30 257.33 268.34 260.48 268.98 270.02 C 269.61 279.57 268.40 287.24 263.23 294.23 C 258.06 301.22 253.70 303.34 246.32 306.32 C 238.95 309.30 228.58 308.00 221.77 304.23 C 214.96 300.46 210.47 295.92 207.08 288.92 C 203.68 281.93 203.02 272.34 205.93 264.93 C 208.83 257.52 211.97 252.23 219.08 248.08 C 226.19 243.93 235.08 241.40 244.00 243.00 Z"/>
</g>
<g fill="None" fill-opacity="0.0" stroke="#000000" stroke-opacity="0.04" stroke-width="0.3"><path d="
M 512.00 59.00 
L 512.00 0.00
L 453.00 0.00
C 467.90 5.07 460.71 24.90 464.00 37.00
C 472.50 35.41 482.28 10.77 491.75 20.25 C 501.22 29.73 478.48 40.33 475.00 48.00
C 487.16 51.15 506.86 44.16 512.00 59.00 Z"/>
</g>
<g fill="None" fill-opacity="0.0" stroke="#0053A1" stroke-opacity="1.00" stroke-width="0.3"><path d="
M 448.00 21.00 
C 440.66 27.46 434.84 33.61 427.75 40.75 C 420.67 47.90 415.13 53.06 407.75 60.75 C 400.37 68.45 405.40 85.83 405.00 96.00
C 412.55 89.43 418.43 82.98 425.75 75.75 C 433.07 68.52 438.56 62.96 446.25 55.25 C 453.93 47.54 447.64 31.03 448.00 21.00 Z"/>
</g>
<g fill="None" fill-opacity="0.0" stroke="#E74343" stroke-opacity="1.00" stroke-width="0.3"><path d="
M 72.00 435.00 
C 76.53 439.97 81.11 445.87 87.00 449.00
C 93.88 439.23 107.40 457.08 115.77 461.23 C 124.14 465.38 135.81 473.69 146.31 477.69 C 156.80 481.70 168.83 486.87 180.98 490.02 C 193.12 493.18 208.31 494.95 221.93 496.07 C 235.54 497.20 252.31 496.96 266.00 495.00
C 271.69 492.79 277.95 489.25 284.22 487.22 C 290.50 485.19 296.70 481.41 302.70 478.70 C 308.69 475.98 314.12 471.93 319.75 468.75 C 325.37 465.56 330.61 461.49 335.75 457.75 C 340.90 454.01 345.15 450.14 349.75 445.75 C 354.36 441.36 359.63 437.80 363.75 432.75 C 367.87 427.70 372.27 423.38 376.25 418.25 C 380.23 413.11 384.08 408.17 387.75 402.75 C 391.43 397.34 393.75 392.00 397.31 386.31 C 400.86 380.61 403.46 374.61 406.31 368.31 C 409.16 362.00 411.64 355.75 413.93 348.93 C 416.21 342.11 418.04 335.21 419.98 327.98 C 421.91 320.74 423.16 312.81 424.00 305.00 C 424.84 297.19 426.23 289.35 426.00 281.00 C 425.77 272.65 425.77 263.03 425.00 255.00 C 424.23 246.97 423.41 238.49 422.00 231.00 C 420.59 223.50 418.62 216.21 416.68 209.32 C 414.73 202.43 412.00 196.57 409.69 190.31 C 407.39 184.04 404.01 177.32 401.23 171.77 C 398.45 166.22 394.52 158.83 391.70 154.30 C 388.87 149.78 380.58 141.34 385.25 138.25 C 389.92 135.16 394.02 125.00 399.00 125.00
C 387.75 132.43 376.74 147.42 365.00 157.00
C 368.87 164.59 375.47 170.49 380.23 177.77 C 384.99 185.05 389.54 192.84 393.23 200.77 C 396.92 208.71 400.70 217.63 403.02 225.98 C 405.35 234.32 408.71 247.89 409.00 256.00 C 409.29 264.11 414.46 283.02 402.00 282.00
C 404.88 287.83 399.43 296.05 401.00 302.00
C 413.05 311.97 400.29 331.65 395.78 344.78 C 391.26 357.90 382.04 370.25 373.75 381.75 C 365.47 393.26 355.56 402.08 344.25 411.25 C 332.94 420.42 321.58 427.32 307.69 433.69 C 293.81 440.07 277.89 444.36 262.01 447.01 C 246.13 449.66 223.43 449.35 207.67 446.33 C 191.92 443.30 176.58 439.05 162.69 432.31 C 148.81 425.56 138.37 418.80 126.70 409.30 C 115.02 399.80 106.55 391.49 97.75 379.25 C 88.96 367.00 82.22 356.14 76.31 341.69 C 70.39 327.25 66.26 311.25 64.00 295.00 C 61.74 278.75 63.79 256.36 66.67 240.67 C 69.55 224.98 75.24 210.70 82.08 197.08 C 88.91 183.45 95.84 173.11 105.75 161.75 C 115.67 150.39 124.31 142.11 136.75 133.75 C 149.20 125.40 160.18 118.17 174.93 112.93 C 189.67 107.69 206.47 103.36 223.00 102.00 C 239.53 100.64 261.98 103.06 277.33 106.67 C 292.68 110.28 306.41 116.04 319.92 123.08 C 333.43 130.12 342.50 139.07 355.00 147.00
C 358.19 141.36 368.63 134.91 371.75 129.75 C 374.87 124.59 388.27 117.64 387.00 113.00
C 387.00 118.32 373.91 123.55 372.00 128.00
C 344.16 93.07 305.31 69.72 265.00 56.00
C 251.50 54.49 233.75 53.09 220.01 54.01 C 206.26 54.93 193.40 57.96 181.01 61.01 C 168.62 64.05 157.71 67.78 146.69 72.69 C 135.68 77.61 126.05 83.23 116.25 89.25 C 106.44 95.27 98.84 101.92 90.25 109.25 C 81.66 116.57 74.32 123.44 67.30 132.30 C 60.28 141.16 53.96 149.07 47.92 158.92 C 41.88 168.78 36.64 178.86 31.93 189.93 C 27.21 200.99 23.77 212.66 20.93 224.93 C 18.09 237.20 15.64 251.73 15.00 265.00 C 14.36 278.27 15.37 296.18 17.22 308.78 C 19.07 321.37 23.12 334.96 26.68 346.32 C 30.24 357.68 35.83 368.91 40.23 378.77 C 44.63 388.63 53.93 398.74 58.23 406.77 C 62.53 414.80 80.84 426.99 72.00 435.00 Z"/>
</g>
<g fill="None" fill-opacity="0.0" stroke="#D43030" stroke-opacity="1.00" stroke-width="0.3"><path d="
M 387.00 113.00 
C 384.88 105.26 373.11 102.06 367.75 96.25 C 362.39 90.45 352.69 87.00 345.70 82.30 C 338.70 77.61 329.86 73.95 321.68 70.32 C 313.49 66.70 303.56 64.25 294.67 61.33 C 285.78 58.40 274.58 57.07 265.00 56.00
C 305.31 69.72 344.16 93.07 372.00 128.00
C 373.91 123.55 387.00 118.32 387.00 113.00 Z"/>
</g>
<g fill="None" fill-opacity="0.0" stroke="#0054A1" stroke-opacity="1.00" stroke-width="0.3"><path d="
M 491.00 64.00 
C 480.73 64.02 463.83 58.60 456.25 66.25 C 448.66 73.90 442.89 79.49 435.75 86.75 C 428.62 94.02 422.51 99.48 416.00 107.00
C 426.55 105.95 443.13 112.53 450.75 104.75 C 458.37 96.97 464.09 91.58 471.25 84.25 C 478.40 76.92 484.48 71.57 491.00 64.00 Z"/>
</g>
<g fill="None" fill-opacity="0.0" stroke="#000000" stroke-opacity="0.01" stroke-width="0.3"><path d="
M 257.00 511.00 
C 256.79 511.11 257.00 512.00 257.00 512.00
L 512.00 512.00
L 512.00 64.00
C 503.72 73.45 495.33 80.70 486.25 90.25 C 477.16 99.80 469.79 105.92 460.25 116.25 C 450.70 126.58 430.33 122.11 417.00 122.00
C 477.02 187.84 487.68 297.19 450.92 374.92 C 414.17 452.66 340.53 503.65 257.00 511.00 Z"/>
</g>
<g fill="None" fill-opacity="0.0" stroke="#E9E9E9" stroke-opacity="1.00" stroke-width="0.3"><path d="
M 120.00 383.00 
C 122.92 385.92 126.13 389.13 129.00 392.00
C 159.54 418.10 195.25 434.11 236.00 434.00 C 276.75 433.89 312.42 419.13 343.00 393.00
C 346.59 389.41 350.46 385.54 354.00 382.00
C 360.61 374.27 366.91 365.52 372.23 357.23 C 377.55 348.94 382.08 337.22 386.02 329.02 C 389.97 320.83 388.73 299.92 401.00 302.00
C 399.43 296.05 404.88 287.83 402.00 282.00
C 390.34 273.69 395.35 252.21 390.98 239.02 C 386.60 225.84 383.28 212.45 376.31 200.70 C 369.33 188.94 363.50 179.37 355.00 169.00
C 342.44 178.42 331.27 191.55 320.00 203.00
C 358.32 245.55 355.45 313.71 314.25 354.25 C 273.04 394.78 206.63 395.28 163.00 358.00
C 159.75 355.22 156.74 352.20 154.00 349.00
C 114.94 306.86 118.10 238.22 157.75 197.75 C 197.41 157.29 267.13 153.04 309.00 192.00
C 320.62 181.22 332.16 169.66 343.00 158.00
C 313.08 130.03 270.99 114.91 230.00 117.00 C 189.01 119.09 152.94 134.47 123.75 163.75 C 94.56 193.03 79.66 230.76 78.00 272.00 C 76.34 313.24 93.60 352.11 120.00 383.00 Z"/>
</g>
<g fill="None" fill-opacity="0.0" stroke="#D63030" stroke-opacity="1.00" stroke-width="0.3"><path d="
M 266.00 495.00 
C 276.53 493.50 288.13 491.10 297.99 487.99 C 307.86 484.88 317.89 482.26 326.92 477.92 C 335.96 473.59 344.19 469.53 352.30 464.30 C 360.42 459.08 367.95 454.30 375.25 448.25 C 382.55 442.20 389.16 436.71 395.75 429.75 C 402.34 422.80 407.43 416.79 413.25 409.25 C 419.06 401.71 423.86 394.14 428.70 385.70 C 433.53 377.26 437.73 368.98 441.68 359.68 C 445.63 350.38 448.57 340.44 451.22 330.22 C 453.87 320.00 456.35 308.09 457.02 297.02 C 457.70 285.96 458.79 271.24 458.00 260.00 C 457.20 248.76 455.19 236.40 452.93 226.07 C 450.67 215.75 447.53 205.23 443.92 196.08 C 440.32 186.92 436.60 176.98 431.77 169.23 C 426.94 161.48 422.42 151.23 416.75 145.25 C 411.08 139.26 406.86 127.16 399.00 125.00
C 394.02 125.00 389.92 135.16 385.25 138.25 C 380.58 141.34 388.87 149.78 391.70 154.30 C 394.52 158.83 398.45 166.22 401.23 171.77 C 404.01 177.32 407.39 184.04 409.69 190.31 C 412.00 196.57 414.73 202.43 416.68 209.32 C 418.62 216.21 420.59 223.50 422.00 231.00 C 423.41 238.49 424.23 246.97 425.00 255.00 C 425.77 263.03 425.77 272.65 426.00 281.00 C 426.23 289.35 424.84 297.19 424.00 305.00 C 423.16 312.81 421.91 320.74 419.98 327.98 C 418.04 335.21 416.21 342.11 413.93 348.93 C 411.64 355.75 409.16 362.00 406.31 368.31 C 403.46 374.61 400.86 380.61 397.31 386.31 C 393.75 392.00 391.43 397.34 387.75 402.75 C 384.08 408.17 380.23 413.11 376.25 418.25 C 372.27 423.38 367.87 427.70 363.75 432.75 C 359.63 437.80 354.36 441.36 349.75 445.75 C 345.15 450.14 340.90 454.01 335.75 457.75 C 330.61 461.49 325.37 465.56 319.75 468.75 C 314.12 471.93 308.69 475.98 302.70 478.70 C 296.70 481.41 290.50 485.19 284.22 487.22 C 277.95 489.25 271.69 492.79 266.00 495.00 Z"/>
</g>
<g fill="None" fill-opacity="0.0" stroke="#E74343" stroke-opacity="1.00" stroke-width="0.3"><path d="
M 298.00 202.00 
C 260.00 169.03 199.03 173.59 165.30 211.30 C 131.58 249.01 133.85 307.49 169.75 343.25 C 205.66 379.01 265.69 379.49 302.25 345.25 C 338.80 311.01 343.48 248.79 308.00 214.00
C 297.55 225.29 286.33 236.50 275.00 247.00
C 294.53 274.21 280.83 313.57 247.67 321.67 C 214.52 329.77 182.17 297.46 190.22 264.22 C 198.28 230.99 237.97 217.61 265.00 237.00
C 275.07 224.79 289.06 214.74 298.00 202.00 Z"/>
</g>
<g fill="None" fill-opacity="0.0" stroke="#595959" stroke-opacity="1.00" stroke-width="0.3"><path d="
M 244.00 243.00 
C 235.08 241.40 226.19 243.93 219.08 248.08 C 211.97 252.23 208.83 257.52 205.93 264.93 C 203.02 272.34 203.68 281.93 207.08 288.92 C 210.47 295.92 214.96 300.46 221.77 304.23 C 228.58 308.00 238.95 309.30 246.32 306.32 C 253.70 303.34 258.06 301.22 263.23 294.23 C 268.40 287.24 269.61 279.57 268.98 270.02 C 268.34 260.48 262.30 257.33 256.75 265.75 C 251.21 274.18 247.87 272.23 242.25 280.25 C 236.62 288.26 224.27 276.93 230.75 270.75 C 237.23 264.58 239.03 261.39 245.75 255.75 C 252.47 250.11 254.56 244.89 244.00 243.00 Z"/>
</g>
<g fill="None" fill-opacity="0.0" stroke="#000000" stroke-opacity="0.67" stroke-width="0.3"><path d="
M 0.00 294.00 
C 0.50 294.00 1.00 294.00 1.00 294.00
C 0.65 288.81 2.06 282.43 0.00 278.00
L 0.00 294.00 Z"/>
</g>
<g fill="None" fill-opacity="0.0" stroke="#000000" stroke-opacity="0.01" stroke-width="0.3"><path d="
M 0.00 512.00 
L 229.00 512.00
C 217.78 510.78 203.10 509.30 192.00 507.00 C 180.91 504.69 168.71 501.97 158.68 498.32 C 148.64 494.67 138.01 490.21 129.23 485.77 C 120.45 481.33 109.91 475.05 103.08 469.92 C 96.26 464.78 80.61 458.07 87.00 449.00
C 81.11 445.87 76.53 439.97 72.00 435.00
C 63.54 442.67 54.26 424.49 48.75 418.25 C 43.25 412.01 36.36 400.74 31.75 392.25 C 27.15 383.76 20.97 373.66 17.32 363.68 C 13.68 353.70 9.43 342.06 6.98 331.02 C 4.52 319.99 1.80 305.68 1.00 294.00
C 1.00 294.00 0.50 294.00 0.00 294.00
L 0.00 512.00 Z"/>
</g>
<g fill="None" fill-opacity="0.0" stroke="#6D6D6D" stroke-opacity="1.00" stroke-width="0.3"><path d="
M 163.00 358.00 
C 160.13 355.13 156.92 351.92 154.00 349.00
C 156.74 352.20 159.75 355.22 163.00 358.00 Z"/>
</g>
<g fill="None" fill-opacity="0.0" stroke="#7A7A7A" stroke-opacity="1.00" stroke-width="0.3"><path d="
M 343.00 393.00 
C 346.89 389.67 350.63 385.94 354.00 382.00
C 350.46 385.54 346.59 389.41 343.00 393.00 Z"/>
</g>
<g fill="None" fill-opacity="0.0" stroke="#777777" stroke-opacity="1.00" stroke-width="0.3"><path d="
M 129.00 392.00 
C 126.13 389.13 122.92 385.92 120.00 383.00
C 122.74 386.20 125.75 389.22 129.00 392.00 Z"/>
</g>
<g fill="None" fill-opacity="0.0" stroke="#000000" stroke-opacity="0.58" stroke-width="0.3"><path d="
M 243.00 512.00 
L 257.00 512.00
C 257.00 512.00 256.79 511.11 257.00 511.00
C 252.47 511.40 246.77 509.92 243.00 512.00 Z"/>
</g>
<g fill="#000000" fill-opacity="0.01" stroke="None">
<path d="
M 0.00 269.00 
C 3.67 182.34 52.35 102.74 132.23 63.23 C 212.11 23.72 321.85 33.92 390.00 95.00
C 389.66 81.46 385.54 60.73 396.25 51.25 C 406.96 41.76 412.43 34.22 422.25 25.25 C 432.07 16.27 438.64 7.17 449.00 0.00
L 0.00 0.00
L 0.00 269.00 Z"/>
</g>
<g fill="#000000" fill-opacity="1.00" stroke="None">
<path d="
M 0.00 269.00 
L 0.00 278.00
C 2.06 282.43 0.65 288.81 1.00 294.00
C 1.80 305.68 4.52 319.99 6.98 331.02 C 9.43 342.06 13.68 353.70 17.32 363.68 C 20.97 373.66 27.15 383.76 31.75 392.25 C 36.36 400.74 43.25 412.01 48.75 418.25 C 54.26 424.49 63.54 442.67 72.00 435.00
C 80.84 426.99 62.53 414.80 58.23 406.77 C 53.93 398.74 44.63 388.63 40.23 378.77 C 35.83 368.91 30.24 357.68 26.68 346.32 C 23.12 334.96 19.07 321.37 17.22 308.78 C 15.37 296.18 14.36 278.27 15.00 265.00 C 15.64 251.73 18.09 237.20 20.93 224.93 C 23.77 212.66 27.21 200.99 31.93 189.93 C 36.64 178.86 41.88 168.78 47.92 158.92 C 53.96 149.07 60.28 141.16 67.30 132.30 C 74.32 123.44 81.66 116.57 90.25 109.25 C 98.84 101.92 106.44 95.27 116.25 89.25 C 126.05 83.23 135.68 77.61 146.69 72.69 C 157.71 67.78 168.62 64.05 181.01 61.01 C 193.40 57.96 206.26 54.93 220.01 54.01 C 233.75 53.09 251.50 54.49 265.00 56.00
C 274.58 57.07 285.78 58.40 294.67 61.33 C 303.56 64.25 313.49 66.70 321.68 70.32 C 329.86 73.95 338.70 77.61 345.70 82.30 C 352.69 87.00 362.39 90.45 367.75 96.25 C 373.11 102.06 384.88 105.26 387.00 113.00
C 388.27 117.64 374.87 124.59 371.75 129.75 C 368.63 134.91 358.19 141.36 355.00 147.00
C 342.50 139.07 333.43 130.12 319.92 123.08 C 306.41 116.04 292.68 110.28 277.33 106.67 C 261.98 103.06 239.53 100.64 223.00 102.00 C 206.47 103.36 189.67 107.69 174.93 112.93 C 160.18 118.17 149.20 125.40 136.75 133.75 C 124.31 142.11 115.67 150.39 105.75 161.75 C 95.84 173.11 88.91 183.45 82.08 197.08 C 75.24 210.70 69.55 224.98 66.67 240.67 C 63.79 256.36 61.74 278.75 64.00 295.00 C 66.26 311.25 70.39 327.25 76.31 341.69 C 82.22 356.14 88.96 367.00 97.75 379.25 C 106.55 391.49 115.02 399.80 126.70 409.30 C 138.37 418.80 148.81 425.56 162.69 432.31 C 176.58 439.05 191.92 443.30 207.67 446.33 C 223.43 449.35 246.13 449.66 262.01 447.01 C 277.89 444.36 293.81 440.07 307.69 433.69 C 321.58 427.32 332.94 420.42 344.25 411.25 C 355.56 402.08 365.47 393.26 373.75 381.75 C 382.04 370.25 391.26 357.90 395.78 344.78 C 400.29 331.65 413.05 311.97 401.00 302.00
C 388.73 299.92 389.97 320.83 386.02 329.02 C 382.08 337.22 377.55 348.94 372.23 357.23 C 366.91 365.52 360.61 374.27 354.00 382.00
C 350.63 385.94 346.89 389.67 343.00 393.00
C 312.42 419.13 276.75 433.89 236.00 434.00 C 195.25 434.11 159.54 418.10 129.00 392.00
C 125.75 389.22 122.74 386.20 120.00 383.00
C 93.60 352.11 76.34 313.24 78.00 272.00 C 79.66 230.76 94.56 193.03 123.75 163.75 C 152.94 134.47 189.01 119.09 230.00 117.00 C 270.99 114.91 313.08 130.03 343.00 158.00
C 332.16 169.66 320.62 181.22 309.00 192.00
C 267.13 153.04 197.41 157.29 157.75 197.75 C 118.10 238.22 114.94 306.86 154.00 349.00
C 156.92 351.92 160.13 355.13 163.00 358.00
C 206.63 395.28 273.04 394.78 314.25 354.25 C 355.45 313.71 358.32 245.55 320.00 203.00
C 331.27 191.55 342.44 178.42 355.00 169.00
C 363.50 179.37 369.33 188.94 376.31 200.70 C 383.28 212.45 386.60 225.84 390.98 239.02 C 395.35 252.21 390.34 273.69 402.00 282.00
C 414.46 283.02 409.29 264.11 409.00 256.00 C 408.71 247.89 405.35 234.32 403.02 225.98 C 400.70 217.63 396.92 208.71 393.23 200.77 C 389.54 192.84 384.99 185.05 380.23 177.77 C 375.47 170.49 368.87 164.59 365.00 157.00
C 376.74 147.42 387.75 132.43 399.00 125.00
C 406.86 127.16 411.08 139.26 416.75 145.25 C 422.42 151.23 426.94 161.48 431.77 169.23 C 436.60 176.98 440.32 186.92 443.92 196.08 C 447.53 205.23 450.67 215.75 452.93 226.07 C 455.19 236.40 457.20 248.76 458.00 260.00 C 458.79 271.24 457.70 285.96 457.02 297.02 C 456.35 308.09 453.87 320.00 451.22 330.22 C 448.57 340.44 445.63 350.38 441.68 359.68 C 437.73 368.98 433.53 377.26 428.70 385.70 C 423.86 394.14 419.06 401.71 413.25 409.25 C 407.43 416.79 402.34 422.80 395.75 429.75 C 389.16 436.71 382.55 442.20 375.25 448.25 C 367.95 454.30 360.42 459.08 352.30 464.30 C 344.19 469.53 335.96 473.59 326.92 477.92 C 317.89 482.26 307.86 484.88 297.99 487.99 C 288.13 491.10 276.53 493.50 266.00 495.00
C 252.31 496.96 235.54 497.20 221.93 496.07 C 208.31 494.95 193.12 493.18 180.98 490.02 C 168.83 486.87 156.80 481.70 146.31 477.69 C 135.81 473.69 124.14 465.38 115.77 461.23 C 107.40 457.08 93.88 439.23 87.00 449.00
C 80.61 458.07 96.26 464.78 103.08 469.92 C 109.91 475.05 120.45 481.33 129.23 485.77 C 138.01 490.21 148.64 494.67 158.68 498.32 C 168.71 501.97 180.91 504.69 192.00 507.00 C 203.10 509.30 217.78 510.78 229.00 512.00
L 243.00 512.00
C 246.77 509.92 252.47 511.40 257.00 511.00
C 340.53 503.65 414.17 452.66 450.92 374.92 C 487.68 297.19 477.02 187.84 417.00 122.00
C 430.33 122.11 450.70 126.58 460.25 116.25 C 469.79 105.92 477.16 99.80 486.25 90.25 C 495.33 80.70 503.72 73.45 512.00 64.00
L 512.00 59.00
C 506.86 44.16 487.16 51.15 475.00 48.00
C 478.48 40.33 501.22 29.73 491.75 20.25 C 482.28 10.77 472.50 35.41 464.00 37.00
C 460.71 24.90 467.90 5.07 453.00 0.00
L 449.00 0.00
C 438.64 7.17 432.07 16.27 422.25 25.25 C 412.43 34.22 406.96 41.76 396.25 51.25 C 385.54 60.73 389.66 81.46 390.00 95.00
C 321.85 33.92 212.11 23.72 132.23 63.23 C 52.35 102.74 3.67 182.34 0.00 269.00
M 448.00 21.00 
C 447.64 31.03 453.93 47.54 446.25 55.25 C 438.56 62.96 433.07 68.52 425.75 75.75 C 418.43 82.98 412.55 89.43 405.00 96.00
C 405.40 85.83 400.37 68.45 407.75 60.75 C 415.13 53.06 420.67 47.90 427.75 40.75 C 434.84 33.61 440.66 27.46 448.00 21.00
M 491.00 64.00 
C 484.48 71.57 478.40 76.92 471.25 84.25 C 464.09 91.58 458.37 96.97 450.75 104.75 C 443.13 112.53 426.55 105.95 416.00 107.00
C 422.51 99.48 428.62 94.02 435.75 86.75 C 442.89 79.49 448.66 73.90 456.25 66.25 C 463.83 58.60 480.73 64.02 491.00 64.00
M 298.00 202.00 
C 289.06 214.74 275.07 224.79 265.00 237.00
C 237.97 217.61 198.28 230.99 190.22 264.22 C 182.17 297.46 214.52 329.77 247.67 321.67 C 280.83 313.57 294.53 274.21 275.00 247.00
C 286.33 236.50 297.55 225.29 308.00 214.00
C 343.48 248.79 338.80 311.01 302.25 345.25 C 265.69 379.49 205.66 379.01 169.75 343.25 C 133.85 307.49 131.58 249.01 165.30 211.30 C 199.03 173.59 260.00 169.03 298.00 202.00
M 244.00 243.00 
C 254.56 244.89 252.47 250.11 245.75 255.75 C 239.03 261.39 237.23 264.58 230.75 270.75 C 224.27 276.93 236.62 288.26 242.25 280.25 C 247.87 272.23 251.21 274.18 256.75 265.75 C 262.30 257.33 268.34 260.48 268.98 270.02 C 269.61 279.57 268.40 287.24 263.23 294.23 C 258.06 301.22 253.70 303.34 246.32 306.32 C 238.95 309.30 228.58 308.00 221.77 304.23 C 214.96 300.46 210.47 295.92 207.08 288.92 C 203.68 281.93 203.02 272.34 205.93 264.93 C 208.83 257.52 211.97 252.23 219.08 248.08 C 226.19 243.93 235.08 241.40 244.00 243.00 Z"/>
</g>
<g fill="#000000" fill-opacity="0.04" stroke="None">
<path d="
M 512.00 59.00 
L 512.00 0.00
L 453.00 0.00
C 467.90 5.07 460.71 24.90 464.00 37.00
C 472.50 35.41 482.28 10.77 491.75 20.25 C 501.22 29.73 478.48 40.33 475.00 48.00
C 487.16 51.15 506.86 44.16 512.00 59.00 Z"/>
</g>
<g fill="#0053A1" fill-opacity="1.00" stroke="None">
<path d="
M 448.00 21.00 
C 440.66 27.46 434.84 33.61 427.75 40.75 C 420.67 47.90 415.13 53.06 407.75 60.75 C 400.37 68.45 405.40 85.83 405.00 96.00
C 412.55 89.43 418.43 82.98 425.75 75.75 C 433.07 68.52 438.56 62.96 446.25 55.25 C 453.93 47.54 447.64 31.03 448.00 21.00 Z"/>
</g>
<g fill="#E74343" fill-opacity="1.00" stroke="None">
<path d="
M 72.00 435.00 
C 76.53 439.97 81.11 445.87 87.00 449.00
C 93.88 439.23 107.40 457.08 115.77 461.23 C 124.14 465.38 135.81 473.69 146.31 477.69 C 156.80 481.70 168.83 486.87 180.98 490.02 C 193.12 493.18 208.31 494.95 221.93 496.07 C 235.54 497.20 252.31 496.96 266.00 495.00
C 271.69 492.79 277.95 489.25 284.22 487.22 C 290.50 485.19 296.70 481.41 302.70 478.70 C 308.69 475.98 314.12 471.93 319.75 468.75 C 325.37 465.56 330.61 461.49 335.75 457.75 C 340.90 454.01 345.15 450.14 349.75 445.75 C 354.36 441.36 359.63 437.80 363.75 432.75 C 367.87 427.70 372.27 423.38 376.25 418.25 C 380.23 413.11 384.08 408.17 387.75 402.75 C 391.43 397.34 393.75 392.00 397.31 386.31 C 400.86 380.61 403.46 374.61 406.31 368.31 C 409.16 362.00 411.64 355.75 413.93 348.93 C 416.21 342.11 418.04 335.21 419.98 327.98 C 421.91 320.74 423.16 312.81 424.00 305.00 C 424.84 297.19 426.23 289.35 426.00 281.00 C 425.77 272.65 425.77 263.03 425.00 255.00 C 424.23 246.97 423.41 238.49 422.00 231.00 C 420.59 223.50 418.62 216.21 416.68 209.32 C 414.73 202.43 412.00 196.57 409.69 190.31 C 407.39 184.04 404.01 177.32 401.23 171.77 C 398.45 166.22 394.52 158.83 391.70 154.30 C 388.87 149.78 380.58 141.34 385.25 138.25 C 389.92 135.16 394.02 125.00 399.00 125.00
C 387.75 132.43 376.74 147.42 365.00 157.00
C 368.87 164.59 375.47 170.49 380.23 177.77 C 384.99 185.05 389.54 192.84 393.23 200.77 C 396.92 208.71 400.70 217.63 403.02 225.98 C 405.35 234.32 408.71 247.89 409.00 256.00 C 409.29 264.11 414.46 283.02 402.00 282.00
C 404.88 287.83 399.43 296.05 401.00 302.00
C 413.05 311.97 400.29 331.65 395.78 344.78 C 391.26 357.90 382.04 370.25 373.75 381.75 C 365.47 393.26 355.56 402.08 344.25 411.25 C 332.94 420.42 321.58 427.32 307.69 433.69 C 293.81 440.07 277.89 444.36 262.01 447.01 C 246.13 449.66 223.43 449.35 207.67 446.33 C 191.92 443.30 176.58 439.05 162.69 432.31 C 148.81 425.56 138.37 418.80 126.70 409.30 C 115.02 399.80 106.55 391.49 97.75 379.25 C 88.96 367.00 82.22 356.14 76.31 341.69 C 70.39 327.25 66.26 311.25 64.00 295.00 C 61.74 278.75 63.79 256.36 66.67 240.67 C 69.55 224.98 75.24 210.70 82.08 197.08 C 88.91 183.45 95.84 173.11 105.75 161.75 C 115.67 150.39 124.31 142.11 136.75 133.75 C 149.20 125.40 160.18 118.17 174.93 112.93 C 189.67 107.69 206.47 103.36 223.00 102.00 C 239.53 100.64 261.98 103.06 277.33 106.67 C 292.68 110.28 306.41 116.04 319.92 123.08 C 333.43 130.12 342.50 139.07 355.00 147.00
C 358.19 141.36 368.63 134.91 371.75 129.75 C 374.87 124.59 388.27 117.64 387.00 113.00
C 387.00 118.32 373.91 123.55 372.00 128.00
C 344.16 93.07 305.31 69.72 265.00 56.00
C 251.50 54.49 233.75 53.09 220.01 54.01 C 206.26 54.93 193.40 57.96 181.01 61.01 C 168.62 64.05 157.71 67.78 146.69 72.69 C 135.68 77.61 126.05 83.23 116.25 89.25 C 106.44 95.27 98.84 101.92 90.25 109.25 C 81.66 116.57 74.32 123.44 67.30 132.30 C 60.28 141.16 53.96 149.07 47.92 158.92 C 41.88 168.78 36.64 178.86 31.93 189.93 C 27.21 200.99 23.77 212.66 20.93 224.93 C 18.09 237.20 15.64 251.73 15.00 265.00 C 14.36 278.27 15.37 296.18 17.22 308.78 C 19.07 321.37 23.12 334.96 26.68 346.32 C 30.24 357.68 35.83 368.91 40.23 378.77 C 44.63 388.63 53.93 398.74 58.23 406.77 C 62.53 414.80 80.84 426.99 72.00 435.00 Z"/>
</g>
<g fill="#D43030" fill-opacity="1.00" stroke="None">
<path d="
M 387.00 113.00 
C 384.88 105.26 373.11 102.06 367.75 96.25 C 362.39 90.45 352.69 87.00 345.70 82.30 C 338.70 77.61 329.86 73.95 321.68 70.32 C 313.49 66.70 303.56 64.25 294.67 61.33 C 285.78 58.40 274.58 57.07 265.00 56.00
C 305.31 69.72 344.16 93.07 372.00 128.00
C 373.91 123.55 387.00 118.32 387.00 113.00 Z"/>
</g>
<g fill="#0054A1" fill-opacity="1.00" stroke="None">
<path d="
M 491.00 64.00 
C 480.73 64.02 463.83 58.60 456.25 66.25 C 448.66 73.90 442.89 79.49 435.75 86.75 C 428.62 94.02 422.51 99.48 416.00 107.00
C 426.55 105.95 443.13 112.53 450.75 104.75 C 458.37 96.97 464.09 91.58 471.25 84.25 C 478.40 76.92 484.48 71.57 491.00 64.00 Z"/>
</g>
<g fill="#000000" fill-opacity="0.01" stroke="None">
<path d="
M 257.00 511.00 
C 256.79 511.11 257.00 512.00 257.00 512.00
L 512.00 512.00
L 512.00 64.00
C 503.72 73.45 495.33 80.70 486.25 90.25 C 477.16 99.80 469.79 105.92 460.25 116.25 C 450.70 126.58 430.33 122.11 417.00 122.00
C 477.02 187.84 487.68 297.19 450.92 374.92 C 414.17 452.66 340.53 503.65 257.00 511.00 Z"/>
</g>
<g fill="#E9E9E9" fill-opacity="1.00" stroke="None">
<path d="
M 120.00 383.00 
C 122.92 385.92 126.13 389.13 129.00 392.00
C 159.54 418.10 195.25 434.11 236.00 434.00 C 276.75 433.89 312.42 419.13 343.00 393.00
C 346.59 389.41 350.46 385.54 354.00 382.00
C 360.61 374.27 366.91 365.52 372.23 357.23 C 377.55 348.94 382.08 337.22 386.02 329.02 C 389.97 320.83 388.73 299.92 401.00 302.00
C 399.43 296.05 404.88 287.83 402.00 282.00
C 390.34 273.69 395.35 252.21 390.98 239.02 C 386.60 225.84 383.28 212.45 376.31 200.70 C 369.33 188.94 363.50 179.37 355.00 169.00
C 342.44 178.42 331.27 191.55 320.00 203.00
C 358.32 245.55 355.45 313.71 314.25 354.25 C 273.04 394.78 206.63 395.28 163.00 358.00
C 159.75 355.22 156.74 352.20 154.00 349.00
C 114.94 306.86 118.10 238.22 157.75 197.75 C 197.41 157.29 267.13 153.04 309.00 192.00
C 320.62 181.22 332.16 169.66 343.00 158.00
C 313.08 130.03 270.99 114.91 230.00 117.00 C 189.01 119.09 152.94 134.47 123.75 163.75 C 94.56 193.03 79.66 230.76 78.00 272.00 C 76.34 313.24 93.60 352.11 120.00 383.00 Z"/>
</g>
<g fill="#D63030" fill-opacity="1.00" stroke="None">
<path d="
M 266.00 495.00 
C 276.53 493.50 288.13 491.10 297.99 487.99 C 307.86 484.88 317.89 482.26 326.92 477.92 C 335.96 473.59 344.19 469.53 352.30 464.30 C 360.42 459.08 367.95 454.30 375.25 448.25 C 382.55 442.20 389.16 436.71 395.75 429.75 C 402.34 422.80 407.43 416.79 413.25 409.25 C 419.06 401.71 423.86 394.14 428.70 385.70 C 433.53 377.26 437.73 368.98 441.68 359.68 C 445.63 350.38 448.57 340.44 451.22 330.22 C 453.87 320.00 456.35 308.09 457.02 297.02 C 457.70 285.96 458.79 271.24 458.00 260.00 C 457.20 248.76 455.19 236.40 452.93 226.07 C 450.67 215.75 447.53 205.23 443.92 196.08 C 440.32 186.92 436.60 176.98 431.77 169.23 C 426.94 161.48 422.42 151.23 416.75 145.25 C 411.08 139.26 406.86 127.16 399.00 125.00
C 394.02 125.00 389.92 135.16 385.25 138.25 C 380.58 141.34 388.87 149.78 391.70 154.30 C 394.52 158.83 398.45 166.22 401.23 171.77 C 404.01 177.32 407.39 184.04 409.69 190.31 C 412.00 196.57 414.73 202.43 416.68 209.32 C 418.62 216.21 420.59 223.50 422.00 231.00 C 423.41 238.49 424.23 246.97 425.00 255.00 C 425.77 263.03 425.77 272.65 426.00 281.00 C 426.23 289.35 424.84 297.19 424.00 305.00 C 423.16 312.81 421.91 320.74 419.98 327.98 C 418.04 335.21 416.21 342.11 413.93 348.93 C 411.64 355.75 409.16 362.00 406.31 368.31 C 403.46 374.61 400.86 380.61 397.31 386.31 C 393.75 392.00 391.43 397.34 387.75 402.75 C 384.08 408.17 380.23 413.11 376.25 418.25 C 372.27 423.38 367.87 427.70 363.75 432.75 C 359.63 437.80 354.36 441.36 349.75 445.75 C 345.15 450.14 340.90 454.01 335.75 457.75 C 330.61 461.49 325.37 465.56 319.75 468.75 C 314.12 471.93 308.69 475.98 302.70 478.70 C 296.70 481.41 290.50 485.19 284.22 487.22 C 277.95 489.25 271.69 492.79 266.00 495.00 Z"/>
</g>
<g fill="#E74343" fill-opacity="1.00" stroke="None">
<path d="
M 298.00 202.00 
C 260.00 169.03 199.03 173.59 165.30 211.30 C 131.58 249.01 133.85 307.49 169.75 343.25 C 205.66 379.01 265.69 379.49 302.25 345.25 C 338.80 311.01 343.48 248.79 308.00 214.00
C 297.55 225.29 286.33 236.50 275.00 247.00
C 294.53 274.21 280.83 313.57 247.67 321.67 C 214.52 329.77 182.17 297.46 190.22 264.22 C 198.28 230.99 237.97 217.61 265.00 237.00
C 275.07 224.79 289.06 214.74 298.00 202.00 Z"/>
</g>
<g fill="#595959" fill-opacity="1.00" stroke="None">
<path d="
M 244.00 243.00 
C 235.08 241.40 226.19 243.93 219.08 248.08 C 211.97 252.23 208.83 257.52 205.93 264.93 C 203.02 272.34 203.68 281.93 207.08 288.92 C 210.47 295.92 214.96 300.46 221.77 304.23 C 228.58 308.00 238.95 309.30 246.32 306.32 C 253.70 303.34 258.06 301.22 263.23 294.23 C 268.40 287.24 269.61 279.57 268.98 270.02 C 268.34 260.48 262.30 257.33 256.75 265.75 C 251.21 274.18 247.87 272.23 242.25 280.25 C 236.62 288.26 224.27 276.93 230.75 270.75 C 237.23 264.58 239.03 261.39 245.75 255.75 C 252.47 250.11 254.56 244.89 244.00 243.00 Z"/>
</g>
<g fill="#000000" fill-opacity="0.67" stroke="None">
<path d="
M 0.00 294.00 
C 0.50 294.00 1.00 294.00 1.00 294.00
C 0.65 288.81 2.06 282.43 0.00 278.00
L 0.00 294.00 Z"/>
</g>
<g fill="#000000" fill-opacity="0.01" stroke="None">
<path d="
M 0.00 512.00 
L 229.00 512.00
C 217.78 510.78 203.10 509.30 192.00 507.00 C 180.91 504.69 168.71 501.97 158.68 498.32 C 148.64 494.67 138.01 490.21 129.23 485.77 C 120.45 481.33 109.91 475.05 103.08 469.92 C 96.26 464.78 80.61 458.07 87.00 449.00
C 81.11 445.87 76.53 439.97 72.00 435.00
C 63.54 442.67 54.26 424.49 48.75 418.25 C 43.25 412.01 36.36 400.74 31.75 392.25 C 27.15 383.76 20.97 373.66 17.32 363.68 C 13.68 353.70 9.43 342.06 6.98 331.02 C 4.52 319.99 1.80 305.68 1.00 294.00
C 1.00 294.00 0.50 294.00 0.00 294.00
L 0.00 512.00 Z"/>
</g>
<g fill="#6D6D6D" fill-opacity="1.00" stroke="None">
<path d="
M 163.00 358.00 
C 160.13 355.13 156.92 351.92 154.00 349.00
C 156.74 352.20 159.75 355.22 163.00 358.00 Z"/>
</g>
<g fill="#7A7A7A" fill-opacity="1.00" stroke="None">
<path d="
M 343.00 393.00 
C 346.89 389.67 350.63 385.94 354.00 382.00
C 350.46 385.54 346.59 389.41 343.00 393.00 Z"/>
</g>
<g fill="#777777" fill-opacity="1.00" stroke="None">
<path d="
M 129.00 392.00 
C 126.13 389.13 122.92 385.92 120.00 383.00
C 122.74 386.20 125.75 389.22 129.00 392.00 Z"/>
</g>
<g fill="#000000" fill-opacity="0.58" stroke="None">
<path d="
M 243.00 512.00 
L 257.00 512.00
C 257.00 512.00 256.79 511.11 257.00 511.00
C 252.47 511.40 246.77 509.92 243.00 512.00 Z"/>
</g>
</svg>