<svg xmlns="http://www.w3.org/2000/svg" width="430" height="430" style="width:100%;height:100%;transform:translate3d(0,0,0);content-visibility:visible" viewBox="0 0 430 430"><defs><clipPath id="c"><path d="M0 0h430v430H0z"/></clipPath><clipPath id="i"><path d="M0 0h430v430H0z"/></clipPath><clipPath id="h"><path d="M0 0h500v500H0z"/></clipPath><clipPath id="d"><path d="M0 0h500v500H0z"/></clipPath><clipPath id="e"><path d="M0 0h500v500H0z"/></clipPath><filter id="a" width="100%" height="100%" x="0%" y="0%" filterUnits="objectBoundingBox"><feComponentTransfer in="SourceGraphic"><feFuncA tableValues="1.0 0.0" type="table"/></feComponentTransfer></filter><path id="b" fill="red" d="M21.978-33.762a.206.206 0 0 0-.21-.198l-6.205-.018-39.344-.126c-3.311-.01-6.06-.018-6.136-.017-.075.001-.138.043-.14.093-.001.05-.005 2.78-.007 6.091l-.036 55.972a6 6 0 0 0 5.996 6h40.223a5.99 5.99 0 0 0 5.988-6l-.113-55.598c-.007-3.311-.014-6.09-.016-6.199" style="display:block" transform="matrix(4.5 0 0 4.5 270.248 271.25)"/><mask id="g" mask-type="alpha"><g filter="url(#a)"><path fill="#fff" d="M0 0h500v500H0z" opacity="0"/><use xmlns:ns1="http://www.w3.org/1999/xlink" ns1:href="#b"/></g></mask></defs><g clip-path="url(#c)"><g clip-path="url(#d)" style="display:block" transform="translate(-35 -35)"><g clip-path="url(#e)" mask="url(#g)" style="display:block"><g style="display:block"><path fill="#636D78" d="m254 199-53 86 34 25 54-14 31-26z" class="tertiary"/><path fill="#636D78" fill-opacity=".5" d="m19-241-53 86 34 25 54-14 31-26z" class="tertiary" style="mix-blend-mode:multiply" transform="translate(235 440)"/><path fill="none" stroke="#121330" stroke-linecap="round" stroke-linejoin="round" stroke-width="10.5" d="m254 199-53 86 34 25 54-14 31-26z" class="primary"/></g><g style="display:block"><path fill="#636D78" d="m304 232-69 46 50 65 54-14 15-66z" class="tertiary"/><path fill="none" stroke="#121330" stroke-linecap="round" stroke-linejoin="round" stroke-width="10.5" d="m304 232-69 46 50 65 54-14 15-66z" class="primary"/></g><g style="display:block"><path fill="#636D78" d="m262.118 321.118-21.731-80.03-77.505 26.794-3.857 55.652 57.831 35.165z" class="tertiary"/><path fill="none" stroke="#121330" stroke-linecap="round" stroke-linejoin="round" stroke-width="10.5" d="m262.118 321.118-21.731-80.03-77.505 26.794-3.857 55.652 57.831 35.165z" class="primary"/></g><g style="display:block"><path fill="#636D78" d="m254.587 48.967-53 86 40.297 48.93 54-14 24.703-49.93z" class="tertiary"/><path fill="#636D78" fill-opacity=".5" d="m19.587-212.033-53 86 40.297 48.93 54-14 24.703-49.93z" class="tertiary" style="mix-blend-mode:multiply" transform="translate(235 261)"/><path fill="none" stroke="#121330" stroke-linecap="round" stroke-linejoin="round" stroke-width="10.5" d="m254.587 48.967-53 86 40.297 48.93 54-14 24.703-49.93z" class="primary"/></g><g style="display:block"><path fill="#636D78" d="m301.69 73.151-38.773 37.184 22.292 58.703 66.595-14.383-1.373-34.514z" class="tertiary"/><path fill="none" stroke="#121330" stroke-linecap="round" stroke-linejoin="round" stroke-width="10.5" d="m301.69 73.151-38.773 37.184 22.292 58.703 66.595-14.383-1.373-34.514z" class="primary"/></g><g style="display:block"><path fill="#636D78" d="m262.118 142.118-21.731-80.03-77.505 26.794-3.857 55.652 57.831 35.165z" class="tertiary"/><path fill="none" stroke="#121330" stroke-linecap="round" stroke-linejoin="round" stroke-width="10.5" d="m262.118 142.118-21.731-80.03-77.505 26.794-3.857 55.652 57.831 35.165z" class="primary"/></g></g><g style="display:block"><path fill="#4AB3FC" d="M369.149 119.32c-.01-.494-.432-.893-.943-.89-.51.002-6.974-.015-14.424-.04l-204.049-.65c-7.45-.025-13.774-.04-14.111-.035s-.62.193-.628.419.201 6.454.468 13.9l10.12 281.893c.267 7.446 6.533 13.477 13.984 13.458l179.001-.437c7.45-.019 13.837-6.073 14.252-13.513l15.596-279.73c.415-7.439.744-13.88.734-14.374" class="secondary"/><path fill="none" stroke="#121330" stroke-linecap="round" stroke-linejoin="round" stroke-width="10.8675" d="M369.149 119.32c-.01-.494-.432-.893-.943-.89q0 0 0 0c-.51.002-6.974-.015-14.424-.04l-204.049-.65c-7.45-.025-13.774-.04-14.111-.035q0 0 0 0c-.338.005-.62.193-.628.419q0 0 0 0c-.009.226.201 6.454.468 13.9l10.12 281.893c.267 7.446 6.533 13.477 13.984 13.458l179.001-.437c7.45-.019 13.837-6.073 14.252-13.513l15.596-279.73c.415-7.439.744-13.88.734-14.374q0 0 0 0m-175.491 89.631v155.907m58.671-155.907v155.907m58.41-155.907v155.907" class="primary"/></g><path fill="#4AB3FC" d="m119.47-29.86-.87 2.72-236.675 1.388-1.395-4.108c0-1.1.9-2 2-2h234.94c1.1 0 2 .9 2 2" class="secondary" opacity="0" style="mix-blend-mode:multiply;display:block" transform="translate(251.996 149.17)scale(.99999)"/><g style="display:none"><path fill="none" stroke="#121330" stroke-linecap="round" stroke-linejoin="round" stroke-width="10.5" d="M295.954 115.704c0-24.261-22.553-41.846-43.744-41.846q0 0 0 0c-22.712 0-41.517 16.866-44.568 38.74v5.836h88.312z" class="primary"/><path fill="#4AB3FC" d="M379.501 157.704H124.095c-5.523 0-10-4.477-10-10v-25.9c0-5.523 4.477-10 10-10h255.406c5.523 0 10 4.477 10 10v25.9c0 5.523-4.477 10-10 10" class="secondary"/><path fill="none" stroke="#121330" stroke-linecap="round" stroke-linejoin="round" stroke-width="10.5" d="M379.501 157.704H124.095c-5.523 0-10-4.477-10-10v-25.9c0-5.523 4.477-10 10-10h255.406c5.523 0 10 4.477 10 10v25.9c0 5.523-4.477 10-10 10" class="primary"/></g></g><g clip-path="url(#h)" style="display:none"><path fill="none" class="quaternary" style="display:none"/><g style="display:none"><path class="secondary"/><path fill="none" class="primary"/><path class="secondary" style="mix-blend-mode:multiply"/><path fill="none" class="primary"/></g><g style="display:none"><path fill="none" class="primary"/><path class="secondary"/><path fill="none" class="primary"/></g></g><g clip-path="url(#i)" style="display:none"><g style="display:none"><path class="secondary"/><path fill="none" class="primary"/><path class="secondary" style="mix-blend-mode:multiply"/><path fill="none" class="primary"/></g><g style="display:none"><path fill="none" class="primary"/><path class="secondary"/><path fill="none" class="primary"/></g></g></g></svg>